<?xml version="1.0" encoding="UTF-8"?>
<svg version="1.1" viewBox="0 0 1600 320" xmlns="http://www.w3.org/2000/svg">
<path transform="translate(0)" d="m0 0h1600v320h-1600v-320z" fill="#FCFDFE"/>
<path transform="translate(1348 28.9)" d="m0 0c1.86-0.0058 1.86-0.0058 3.76-0.0117 18.5 0.0195 18.5 0.0195 25.6 3.14 2.56 0.566 5.11 1.09 7.69 1.56 7.06 1.31 7.06 1.31 9.31 2.44v2l3 0.25c3.8 0.53 6.71 1.96 10.1 3.76 2.55 1.31 5.19 2.17 7.93 2.99v2c0.723 0.271 1.45 0.541 2.19 0.82 8.81 3.7 17.2 9.37 23.8 16.2l2.81 2.12 2.19 1.88v3h2v2c0.99 0.33 1.98 0.66 3 1 4.14 4.59 7.5 9.92 11 15 0.666 0.932 1.33 1.86 2.02 2.82 6.92 9.91 11.5 20.6 15 32.2l1.12 3.44c0.942 3.83 1.29 7.49 1.53 11.4 0.164 2.35 0.164 2.35 2.34 4.14 3.07 14.9 1.61 32.4-2 47-0.342 1.46-0.342 1.46-0.691 2.95-1.41 5.88-3.05 11.4-5.31 17.1-0.306 0.789-0.611 1.58-0.926 2.39-1.12 2.71-2.37 5.31-3.7 7.92-0.446 0.883-0.892 1.77-1.35 2.68-0.338 0.664-0.675 1.33-1.02 2.01-17.8-1.37-17.8-1.37-24.7-4.13-2.7-1.01-5.43-1.81-8.2-2.62-12.6-3.86-24.5-8.52-35.8-15.3-4.96-2.92-10.1-5.43-15.3-7.93v-2c-0.801-0.114-0.801-0.114-1.62-0.23-3.35-1.08-5.7-2.98-8.51-5.08-1.05-0.78-2.11-1.56-3.2-2.36-2.42-2.1-3.59-3.37-4.68-6.32h-2c1.7 3.58 3.56 6.9 5.69 10.2 6.51 10.7 11.4 22.8 15.3 34.8 0.522 1.49 0.522 1.49 1.05 3 3.27 10.1 3.98 20.2 4.74 30.7 0.183 2.43 0.183 2.43 0.752 5.33 0.655 4.28 0.558 8.51 0.516 12.8-0.00451 0.879-0.00902 1.76-0.0137 2.66-0.0117 2.15-0.0296 4.31-0.0488 6.46-3.75 2-3.75 2-6 2v2c-1.11 0.121-2.22 0.242-3.36 0.367-1.46 0.169-2.93 0.338-4.39 0.508-0.73 0.0786-1.46 0.157-2.21 0.238-4.13 0.442-4.13 0.442-7.96 1.91-2.56 1.2-4.43 1.22-7.26 1.21-0.993-0.00193-1.99-0.00387-3.01-0.00586-1.03-0.0122-2.06-0.0245-3.13-0.0371-1.53-9.67e-4 -1.53-9.67e-4 -3.09-0.00195-5.3-0.0308-10.4-0.314-15.6-1.19-1.55-0.186-3.1-0.367-4.64-0.543-16.1-1.95-30.9-6.09-45.4-13.5-0.91-0.461-1.82-0.923-2.76-1.4-11-5.79-20.4-13.2-29.7-21.3-1.08-0.918-2.17-1.82-3.28-2.7-1.46-1.17-2.87-2.39-4.28-3.62v-2c-0.99-0.33-1.98-0.66-3-1-2.04-2.43-2.04-2.43-4.19-5.44-0.715-0.989-1.43-1.98-2.17-3-1.64-2.57-1.64-2.57-1.64-4.57h-2c-1.44-2.18-1.44-2.18-3-5-0.725-1.26-0.725-1.26-1.46-2.54-4.53-8.14-7.98-16.4-10.8-25.3-0.463-1.41-0.961-2.81-1.5-4.19-8.48-22.4-4.76-50-1.22-73h2c0.29-1.37 0.29-1.37 0.586-2.77 0.26-1.19 0.521-2.38 0.789-3.6 0.255-1.18 0.51-2.37 0.773-3.59 0.852-3.04 0.852-3.04 2.85-5.04 0.783-1.8 0.783-1.8 1.44-3.81 1.19-3.33 2.61-6.22 4.56-9.19 4.76 0.384 9.11 0.925 13.7 2.36 3.48 1.08 6.96 2.1 10.5 3.07 9.57 2.64 18.8 5.36 27.9 9.57 1.57 0.712 3.13 1.42 4.7 2.14 1.71 0.786 3.41 1.57 5.11 2.36 1.2 0.552 1.2 0.552 2.43 1.11 5.02 2.37 9.31 5.07 13.8 8.39 2.3 1.4 4.65 2.69 7 4 3.94 2.22 7.33 4.8 10.8 7.69 0.976 0.808 1.95 1.62 2.96 2.45 0.736 0.615 1.47 1.23 2.23 1.86l-1.94-3.44c-1.02-1.85-2.04-3.71-3.06-5.56-0.348-0.622-0.697-1.24-1.06-1.89-4.61-8.26-8.67-16.1-11.2-25.3-0.667-2.43-1.45-4.7-2.39-7.04-1.34-3.65-2.2-7.16-2.95-11-0.268-1.8-0.268-1.8-1.43-2.79-2.63-15.9-2.22-32-2-48 5.35-1.65 9.47-2.19 15-2l1-3c9.25-0.852 18.4-1.15 27.7-1.12z" fill="#00B561"/>
<path transform="translate(1348 28.9)" d="m0 0c1.86-0.0058 1.86-0.0058 3.76-0.0117 18.5 0.0195 18.5 0.0195 25.6 3.14 2.56 0.566 5.11 1.09 7.69 1.56 7.06 1.31 7.06 1.31 9.31 2.44v2l3 0.25c3.8 0.53 6.71 1.96 10.1 3.76 2.55 1.31 5.19 2.17 7.93 2.99v2c0.723 0.271 1.45 0.541 2.19 0.82 8.81 3.7 17.2 9.37 23.8 16.2l2.81 2.12 2.19 1.88v3h2v2c0.99 0.33 1.98 0.66 3 1 4.14 4.59 7.5 9.92 11 15 0.666 0.932 1.33 1.86 2.02 2.82 6.92 9.91 11.5 20.6 15 32.2l1.12 3.44c0.942 3.83 1.29 7.49 1.53 11.4 0.164 2.35 0.164 2.35 2.34 4.14 3.07 14.9 1.61 32.4-2 47-0.228 0.973-0.456 1.95-0.691 2.95-1.41 5.88-3.05 11.4-5.31 17.1-0.306 0.789-0.611 1.58-0.926 2.39-1.12 2.71-2.37 5.31-3.7 7.92-0.446 0.883-0.892 1.77-1.35 2.68-0.338 0.664-0.675 1.33-1.02 2.01-17.8-1.37-17.8-1.37-24.7-4.13-2.7-1.01-5.43-1.81-8.2-2.62-12.6-3.86-24.5-8.52-35.8-15.3-4.96-2.92-10.1-5.43-15.3-7.93v-2c-0.534-0.0761-1.07-0.152-1.62-0.23-3.35-1.08-5.7-2.98-8.51-5.08-1.05-0.78-2.11-1.56-3.2-2.36-2.48-2.15-3.39-3.42-4.68-6.32l-2.31-0.75c-3.58-1.66-4.5-3.87-6.43-7.22-1.71-2.77-3.87-4.84-6.26-7.03-1.81-1.69-1.81-1.69-3-3v-2h-2c-1.55-1.57-1.55-1.57-3.31-3.69-2.1-2.48-4.17-4.78-6.5-7.06-1.99-2.04-3.12-3.63-4.19-6.25h-2c-1.68-3.05-3.34-6.11-5-9.17-1.07-1.97-2.17-3.93-3.26-5.89-4.17-7.57-7.68-14.8-9.97-23.1-0.667-2.43-1.45-4.7-2.39-7.04-1.34-3.65-2.2-7.16-2.95-11-0.268-1.8-0.268-1.8-1.43-2.79-2.63-15.9-2.22-32-2-48 5.35-1.65 9.47-2.19 15-2l1-3c9.25-0.852 18.4-1.15 27.7-1.12z" fill="#497FCD"/>
<path transform="translate(585 79.7)" d="m0 0c1.32 0.00387 2.64 0.00773 4 0.0117 3.22 0.272 4.97 0.464 7.57 2.3 6.89 10.3 0.26 30.7-1.54 42-0.604 4-1.05 8.01-1.46 12h-2c-0.0735 1.45-0.0735 1.45-0.148 2.94-0.395 7.27-0.923 14.5-1.79 21.8-0.153 1.28-0.307 2.57-0.465 3.89-0.598 3.43-0.598 3.43-1.6 5.75-1.54 4.13-1.66 8.36-2 12.7-0.584 6.78-1.27 13.5-2.5 20.1-0.79 4.37-1.4 8.77-2.04 13.2-0.465 2.62-0.465 2.62-1.46 4.62-0.16 1.38-0.273 2.76-0.359 4.14-0.0645 0.824-0.129 1.65-0.195 2.5-0.129 1.73-0.244 3.45-0.344 5.18-0.505 6.02-1.59 9.08-6.1 13.2-19.5 10.2-56.3 9.05-77.4 3.04-7.02-2.66-13.4-6.56-18.6-12-0.77-2.25-0.77-2.25-1-4h-2c-3.2-7.81-3.43-14.7-3.31-23.1 0.0091-1.28 0.0182-2.57 0.0276-3.89 0.288-22 0.288-22 3.28-28h2l-1-3c1.06-5.41 2.87-10.4 6-15l1-2h2l0.625-2c2.46-5.36 5.67-10.8 11.4-13h3v-3c8.33-4.47 15.4-7.4 25-7v-2c9.6-1.26 19-0.917 28.7-0.562 1.59 0.0534 3.18 0.106 4.76 0.158 3.85 0.128 7.7 0.264 11.5 0.404 0.067-1.09 0.067-1.09 0.135-2.21 0.61-8.91 1.67-17.7 2.91-26.6 0.332-2.39 0.647-4.77 0.961-7.16 0.212-1.53 0.426-3.05 0.641-4.58 0.0907-0.709 0.181-1.42 0.275-2.15 0.411-2.8 0.801-4.95 2.45-7.29 2.78-1.8 5.87-1.44 9.07-1.37z" fill="#4980CD"/>
<path transform="translate(288 129)" d="m0 0c1.13 0.00399 1.13 0.00399 2.29 0.00806 14.6 0.123 14.6 0.123 18.6 2.12v2c0.603 0.0606 1.21 0.121 1.83 0.184 0.799 0.0838 1.6 0.168 2.42 0.254 1.18 0.122 1.18 0.122 2.39 0.246 2.18 0.293 4.24 0.737 6.36 1.32v2c1.11 0.268 2.23 0.536 3.38 0.812 3.62 1.19 3.62 1.19 5.62 4.19 0.637 0.276 1.27 0.552 1.93 0.836 2.97 1.67 3.73 3.75 5.2 6.79 0.498 1 0.995 2.01 1.51 3.04 2.74 6.69 3.71 12.8 3.62 20-0.0112 1.18-0.0112 1.18-0.0227 2.39-0.266 14.6-3.35 30.4-9.23 43.9h-2l-0.75 2.62c-3.2 8.65-9.86 14.2-17.2 19.4l-3 1-1 2c-16.6 7.4-34.4 8.91-52.4 7.38-0.837-0.069-1.67-0.138-2.54-0.209-11.5-1.26-23.2-7.67-31.2-16-2.31-3.79-3.29-7.39-4.26-11.7-0.595-2.71-0.595-2.71-2.68-5.49-0.437-3.25-0.331-6.53-0.312-9.81 0.00274-0.945 0.00548-1.89 0.0083-2.86 0.0995-6.72 0.861-12.8 2.53-19.3 0.72-2.84 1.14-5.59 1.52-8.49 1.08-6.28 3.89-11.7 6.69-17.4 1.6-3.1 1.6-3.1 2.56-6.19 1.62-1.77 3.24-3.38 5-5 0.638-0.608 1.28-1.22 1.93-1.84 0.682-0.629 1.36-1.26 2.07-1.91 0.959-0.889 0.959-0.889 1.94-1.8 2.36-1.66 4.22-2.08 7.06-2.45l1-3c3.46-0.495 3.46-0.495 7-1v-2c5.98-1.68 12-3.28 18-4.57 1.95-0.394 1.95-0.394 3.72-0.977 3.44-0.692 6.88-0.6 10.4-0.578z" fill="#4F86D5"/>
<path transform="translate(1348 28.9)" d="m0 0c1.86-0.0058 1.86-0.0058 3.76-0.0117 18.5 0.0195 18.5 0.0195 25.6 3.14 2.56 0.566 5.11 1.09 7.69 1.56 7.06 1.31 7.06 1.31 9.31 2.44v2l3 0.25c3.8 0.53 6.71 1.96 10.1 3.76 2.55 1.31 5.19 2.17 7.93 2.99v2c0.723 0.271 1.45 0.541 2.19 0.82 8.81 3.7 17.2 9.37 23.8 16.2l2.81 2.12 2.19 1.88v3h2v2c0.99 0.33 1.98 0.66 3 1 3.03 3.42 5.51 7.17 8 11h-4l1 3-2 3h-2l2 4 2 0.438 2 0.562c0.667 2 1.33 4 2 6l2 1-4 2c-0.402-0.959-0.402-0.959-0.812-1.94-1.07-2.39-1.07-2.39-4.19-3.06-2.17 0.875-2.17 0.875-4 2v-2h-2v2c-1.33-0.667-2.67-1.33-4-2l1 4c-5.75 1.12-5.75 1.12-8 0v-3l-5 5-3-1c-2.6 0.38-4.65 0.825-7 2v-3c-3.89-0.211-3.89-0.211-7 1-1.67-0.293-3.34-0.627-5-1h-3l1-2-2.38-1.75c-2.43-2.08-3.48-3.34-4.62-6.25h-2l1-3-3-2h2v-2c-0.887 0.248-1.77 0.495-2.69 0.75-3.31 0.25-3.31 0.25-5.94-1.69l-2.38-2.06h-4c-0.227 0.619-0.454 1.24-0.688 1.88-2.07 3.34-4.98 3.76-8.62 4.75l-1.69 0.375 3 1v2c-3 1-3 1-6 0v-2h2c0.268-0.598 0.536-1.2 0.812-1.81 1.17-2.16 2.38-3.55 4.19-5.19l-1 1-3-1 4-2c-3.06-2.59-3.06-2.59-7-3h-2l-2 4-0.312-1.94-0.688-2.06c-0.99-0.33-1.98-0.66-3-1v2l2 1v3h2l1 2c2.53 0.656 2.53 0.656 5 1-1 3-1 3-3 4v6l3 1 1 6-2.44 0.438c-2.48 0.304-2.48 0.304-3.56 1.56 1.98 0.33 3.96 0.66 6 1l-4 5 5 1-1 4 5 1-2 1 0.562 2.38c0.438 2.62 0.438 2.62-0.562 4.62l4 1-1 3h-2c-0.289 0.639-0.578 1.28-0.875 1.94-1.12 2.06-1.12 2.06-3.12 3.06l1-2.81c1.15-3.11 1.15-3.11 1-6.19l-2.81 0.5c-3.19 0.5-3.19 0.5-6.19 0.5l-1-3c-2.48-0.908-4.34-1-7-1l-3-3-2.5-1.38c-2.5-1.62-2.5-1.62-3.5-4.62l2.25 0.75 2.75 0.25c2.33-1.83 2.33-1.83 4-4l-2-1v-1c-0.99-0.33-1.98-0.66-3-1l2-2c-1.93-1.15-1.93-1.15-4-1v-3h2l1-3 2-2c-0.99-0.33-1.98-0.66-3-1l-2 1v-3h-2c-1-4.88-1-4.88-1-6l-1.88-0.875c-2.12-1.12-2.12-1.12-4.12-3.12l-0.438-2.06c-0.186-0.639-0.371-1.28-0.562-1.94-3.13-1.04-3.99-0.934-7 0l-1-3 1-2h-2l-1 2v-3c-3.24 0.35-4.62 0.562-6.81 3.06-0.392 0.639-0.784 1.28-1.19 1.94l-2-1c-0.764 3.73-1.09 6.35 0 10v4l5 1v2l-1 1h2c1.5 3.37 2 5.2 2 9l2 1h-2c0.573 2.87 0.861 3.86 3 6l1 3-1 2h2v2h2l1 5c2.97 0.495 2.97 0.495 6 1l0.812 3.44 1.19 3.56c0.99 0.33 1.98 0.66 3 1v2l5-1-0.625 1.88-0.375 2.12c1.93 2.22 1.93 2.22 5 3l1 3h4c2.12 7.62 2.12 7.62 1 11l4 1v3h2l1.25 2.94c1.4 3.19 1.4 3.19 3.94 3.94l1.81 0.125v2h3v2h2v2l4 1v4c2.31 0.33 4.62 0.66 7 1l1 3c2 0.679 4 1.35 6 2 2 3 2 3 2 5 0.99-0.33 1.98-0.66 3-1v2c0.99-0.33 1.98-0.66 3-1 2.19 0.938 2.19 0.938 4 2l-4 4 1 2 1-3 1 4 3.25-1.06c4.67-1.17 4.67-1.17 7.75 0.0625l-1 2h-2l1 4h2v2h2v-2h2v2h2l1-2 1 3 2 2 1 2c1.98-0.33 3.96-0.66 6-1v2h2v2c0.99 0.33 1.98 0.66 3 1h-2v2c0.99-0.33 1.98-0.66 3-1l2 1v3c0.887-0.206 1.77-0.412 2.69-0.625 3.54-0.401 5.18 0.0582 8.31 1.62v2c0.99 0.33 1.98 0.66 3 1-3.16 1.58-5.58 0.661-9 0-1.9-0.687-3.8-1.38-5.67-2.13-2.7-1.01-5.43-1.81-8.2-2.62-12.6-3.86-24.5-8.52-35.8-15.3-4.96-2.92-10.1-5.43-15.3-7.93v-2c-0.534-0.0761-1.07-0.152-1.62-0.23-3.35-1.08-5.7-2.98-8.51-5.08-1.05-0.78-2.11-1.56-3.2-2.36-2.48-2.15-3.39-3.42-4.68-6.32l-2.31-0.75c-3.58-1.66-4.5-3.87-6.43-7.22-1.71-2.77-3.87-4.84-6.26-7.03-1.81-1.69-1.81-1.69-3-3v-2h-2c-1.55-1.57-1.55-1.57-3.31-3.69-2.1-2.48-4.17-4.78-6.5-7.06-1.99-2.04-3.12-3.63-4.19-6.25h-2c-1.68-3.05-3.34-6.11-5-9.17-1.07-1.97-2.17-3.93-3.26-5.89-4.17-7.57-7.68-14.8-9.97-23.1-0.667-2.43-1.45-4.7-2.39-7.04-1.34-3.65-2.2-7.16-2.95-11-0.268-1.8-0.268-1.8-1.43-2.79-2.63-15.9-2.22-32-2-48 5.35-1.65 9.47-2.19 15-2l1-3c9.25-0.852 18.4-1.15 27.7-1.12z" fill="#4982D0"/>
<path transform="translate(1142 129)" d="m0 0c1.23-0.00773 2.46-0.0155 3.73-0.0234 18.3 0.0388 18.3 0.0388 24.6 4.27l2.75 0.875c8.28 2.86 12.5 6.64 16.4 14.3 1.17 3.73 1.17 7.31 1.13 11.2 0.0116 1.09 0.0116 1.09 0.0234 2.21-0.0325 9.09-3.04 15.2-8.27 22.4l-1.88 2.81c-4.28 4.4-10.3 6.42-16 8.43-1.95 0.694-3.88 1.44-5.81 2.19-7.28 2.42-15 3.12-22.6 4.13-2.31 0.312-4.63 0.626-6.94 0.948-1.43 0.199-2.86 0.392-4.29 0.578-3.79 0.526-7.01 1.42-10.5 2.91-2.04 0.411-2.04 0.411-3.99 0.633-0.706 0.0838-1.41 0.168-2.14 0.254-0.721 0.0786-1.44 0.157-2.19 0.238-0.741 0.0864-1.48 0.173-2.24 0.262-1.81 0.211-3.63 0.413-5.44 0.613 1.01 7.7 1.01 7.7 5.03 14.1 5.77 3.91 10.7 5.04 17.7 5 1.12-0.0033 2.24-0.00661 3.39-0.01 1.79-0.0124 1.79-0.0124 3.62-0.0251 1.85-0.00568 1.85-0.00568 3.74-0.0115 3.94-0.0122 7.87-0.0307 11.8-0.051 5.19-0.0268 10.4-0.0465 15.6-0.0625 1.81-0.0124 1.81-0.0124 3.65-0.0251 1.1-0.0033 2.21-0.00661 3.35-0.01 0.978-0.00524 1.96-0.0105 2.96-0.0159 2.21 0.114 2.21 0.114 3.21 1.11 0.153 2.25 0.222 4.5 0.25 6.75l0.0781 3.73c-0.349 3.74-1.09 5.54-3.33 8.52-6.42 5.14-15.7 4.16-23.5 4.17-0.988 0.00333-1.98 0.00666-3 0.0101-2.08 0.00504-4.16 0.00741-6.24 0.00725-3.16 0.00219-6.32 0.0204-9.49 0.0393-2.03 0.00293-4.06 0.00492-6.09 0.00586-0.935 0.00719-1.87 0.0144-2.83 0.0218-5.86-0.0202-11.2-0.728-16.8-2.25-0.968-0.26-1.94-0.521-2.93-0.789-9.36-3.13-17.5-8.97-23.1-17.2-8.83-20.6-3.83-47.7 4-68 5.05-11.4 5.05-11.4 9-16h2v-2c1.97-1.74 3.94-3.38 6-5 0.77-0.66 1.54-1.32 2.33-2 2.82-2.12 5.38-3.35 8.67-4.62 1.01-0.405 2.02-0.81 3.06-1.23 10.2-3.32 20.9-3.47 31.6-3.4z" fill="#F17F34"/>
<path transform="translate(793 129)" d="m0 0c1.35-0.00499 1.35-0.00499 2.73-0.0101 1.9-0.00503 3.8-0.00741 5.7-0.00725 2.85-0.00217 5.7-0.0203 8.54-0.0393 8.66-0.0287 17.3 0.102 25.9 0.986 1.03 0.0915 1.03 0.0915 2.07 0.185 4.51 0.542 7.22 1.77 10.4 5.05 0.692 5.83-0.317 11.4-2 17l-1 1c-2.87-0.0886-5.72-0.237-8.59-0.422-10.7-0.608-21.3-0.797-32-0.818-3.04-0.00987-6.09-0.0411-9.13-0.0723-1.97-0.00652-3.95-0.0118-5.92-0.0156-0.892-0.0123-1.78-0.0247-2.7-0.0374-7.12 0.025-14.2 1.03-20.2 5.12-2.05 3.21-2.5 5.44-2.44 9.25 3.52 4.43 7.02 6.07 12.4 7.38 1.12 0.294 1.12 0.294 2.26 0.593 5.42 1.39 10.9 2.61 16.3 3.83 0.695 0.156 1.39 0.312 2.11 0.472 3.51 0.786 7.03 1.56 10.5 2.32 0.994 0.217 0.994 0.217 2.01 0.439 1.82 0.398 3.64 0.79 5.47 1.18 2.9 0.79 2.9 0.79 5.9 2.79 1.55 0.452 3.12 0.865 4.69 1.25 7.22 2.09 13.2 6.34 17.3 12.8 3.48 7.94 2.24 17.3-0.625 25.3-4.58 10.2-13.5 17-23.4 21.7-24.7 9.21-66.7 11.5-91.4 1.44-4.17-2.05-4.17-2.05-5.56-3.44-0.612-7.36-0.0944-13.3 3-20 5.62-0.194 10.4 0.376 15.8 1.94 10.9 3.14 22 3.29 33.3 3.36 1.43 0.0115 2.86 0.032 4.29 0.0615 10.6 0.217 23 0.469 31.4-6.81 2.55-3 3.09-4.63 3.17-8.54-0.564-2.64-0.564-2.64-2-5-2.44-1.18-2.44-1.18-5.31-1.69-3.75-0.834-7.13-1.86-10.7-3.31-1.35-0.349-2.7-0.662-4.06-0.938-5.68-1.2-11.3-2.64-16.9-4.06-1.28-0.313-2.56-0.626-3.88-0.949-29.3-7.33-29.3-7.33-37.1-18.1-2.95-8.45-0.984-18.7 2.62-26.6 0.454-0.804 0.908-1.61 1.38-2.44h2l0.688-2.19c3.65-7.82 10.9-10.3 18.3-13.8l2.02-1.08c2.5-1.16 4.99-1.82 7.67-2.48 0.973-0.249 1.95-0.498 2.95-0.754 7.32-1.49 14.6-1.84 22.1-1.85z" fill="#F17F34"/>
<path transform="translate(1229,95)" d="m0 0c4.76 0.384 9.11 0.925 13.7 2.36 3.48 1.08 6.96 2.1 10.5 3.07 9.57 2.64 18.8 5.36 27.9 9.57 1.57 0.712 3.13 1.42 4.7 2.14 1.71 0.786 3.41 1.57 5.11 2.36 1.2 0.552 1.2 0.552 2.43 1.11 5.02 2.37 9.31 5.07 13.8 8.39 2.3 1.4 4.65 2.69 7 4 5.88 3.34 10.8 7.67 16 12 0.741 0.615 1.48 1.23 2.25 1.86 5.77 4.9 11.6 10.2 14.8 17.1h2c1.37 1.61 1.37 1.61 2.88 3.75 1.67 2.31 3.23 4.35 5.25 6.38 2.37 2.37 4.02 5.09 5.88 7.88l2 1c0.69 1.62 1.38 3.25 2.04 4.88 1.04 2.29 2.3 4.31 3.65 6.43 6.54 10.7 11.4 22.8 15.3 34.7 0.522 1.49 0.522 1.49 1.05 3 3.27 10.1 3.98 20.2 4.74 30.7 0.183 2.43 0.183 2.43 0.752 5.33 0.655 4.28 0.558 8.51 0.516 12.8-0.00451 0.879-0.00902 1.76-0.0137 2.66-0.0117 2.15-0.0296 4.31-0.0488 6.46-3.75 2-3.75 2-6 2v2c-1.11 0.121-2.22 0.242-3.36 0.367-1.46 0.169-2.93 0.338-4.39 0.508-0.73 0.0786-1.46 0.157-2.21 0.238-4.13 0.442-4.13 0.442-7.96 1.91-2.56 1.2-4.43 1.22-7.26 1.21-0.993-0.00193-1.99-0.00387-3.01-0.00586-1.03-0.0122-2.06-0.0245-3.13-0.0371-1.53-9.67e-4 -1.53-9.67e-4 -3.09-0.00195-5.3-0.0308-10.4-0.314-15.6-1.19-1.55-0.186-3.1-0.367-4.64-0.543-14.2-1.72-27.6-4.76-40.4-11.5v-4l-2-1c3.92-3.47 6.75-5 12-5 0.474-0.495 0.949-0.99 1.44-1.5 1.56-1.5 1.56-1.5 4.56-1.5l2 3 2-0.562c3.96-0.577 7.06-0.16 11 0.562l1 2h3 11l1-2 2.19 0.5c2.79 0.496 5 0.86 7.81 0.5l1.94-1.94c2.6-2.6 4.48-2.74 8.06-3.06v-2l-2-1 1-2-2-1c2.65-1.46 3.89-2 7-2l-3-2 1-2-1-1c0.351-0.619 0.701-1.24 1.06-1.88 0.309-0.701 0.619-1.4 0.938-2.12l-1-2 1-2-2-1 0.0625-2.31c0.0669-2.79 0.0669-2.79-1.06-5.69h-2v-2l-1-1-0.438-2.5c-0.186-0.825-0.371-1.65-0.562-2.5l-2-1-1-1c0.438-2.06 0.438-2.06 1-4h-2v-2l-2-1 1-1-5-2 1-3c-0.776-3.07-0.776-3.07-3-5v-4l-2-1c0-3 0-3 1-5l-2-2v-3l-2-1c-1.26-4.48-1.26-4.48 0-7l-2-1c-1.02-3.05-1.21-4.5 0.0625-7.5 1.22-2.47 1.22-2.47 0.188-4.94l-1.25-2.56c-1.19-3.19-1.19-3.19-2-6l1-2h-4-3l1-5 1.94-0.438c2.04-0.373 2.04-0.373 3.06-1.56l-2-1v-2h-2c-1.03-1.65-2.02-3.32-3-5l-3-3v-2l-2.94-0.375c-1.01-0.206-2.02-0.412-3.06-0.625l-1-2-3 1c-2-3-2-3-2-6-0.908-0.268-1.82-0.536-2.75-0.812-2.96-1.08-4.87-2.17-7.25-4.19l-1 1-1-2-3-1-3-2v-2l-2.38 0.5c-2.62 0.5-2.62 0.5-4.62 0.5l-2 1 2 1v2l2 1c-3.75 3-3.75 3-6 3v2l3 3h3l2 1v-2l4 1h-2v4l2.81-2.56c1.58-1.44 1.58-1.44 3.19-2.44l3 1-1 3c1.98-0.33 3.96-0.66 6-1l-1 3c-2.28 0.673-4.52 0.949-6.87 1.28-2.32 0.535-2.32 0.535-3.41 2.79-0.236 0.638-0.472 1.28-0.715 1.93h-6v-2c-4.14-0.21-4.14-0.21-8 1l1-3h2v-2l-2-1h2v-2l-1.88 0.625-2.12 0.375-2-2c-4-1.14-7.86-1.08-12-1l1-2c-0.592 0.0232-1.18 0.0464-1.79 0.0703-4.55 0.104-8.07 0.063-12.2-2.07l-2-1v-1c-2.81-1.25-2.81-1.25-4.94-0.438-2.06 0.438-2.06 0.438-4.12-0.125-2.7-2-3.62-4.4-4.94-7.44h-4l-1-2c-2.56 1.28-2.56 1.28-5 3v3h-6c1.33-4 2.67-8 4-12h2c0.167-2.42 0.167-2.42 0-5l-2-2c0.267-4.67 2.63-8.1 5-12z" fill="#00B360"/>
<path transform="translate(867,130)" d="m0 0c3.79-0.0289 7.58-0.0468 11.4-0.0625 1.08-0.00838 2.16-0.0168 3.27-0.0254 1.55-0.00483 1.55-0.00483 3.12-0.00977 0.953-0.00524 1.91-0.0105 2.89-0.0159 2.34 0.114 2.34 0.114 4.34 1.11 0.0551 1.52 0.0933 3.04 0.125 4.56 0.0232 0.847 0.0464 1.69 0.0703 2.57-0.195 2.87-0.195 2.87-1.13 6-1.22 4.16-1.79 8.32-2.32 12.6-0.159 1.21-0.159 1.21-0.321 2.45-0.334 2.56-0.662 5.12-0.988 7.68-0.33 2.58-0.662 5.16-0.999 7.75-0.209 1.6-0.414 3.2-0.614 4.8-0.712 5.46-0.712 5.46-1.82 6.57-0.683 3.79-1.09 7.62-1.56 11.4-0.139 1.06-0.277 2.11-0.42 3.2-2.06 11.6-2.06 11.6 0.982 22.3 3.53 2.43 6.91 3.86 11 5.06 0.569 0.173 1.14 0.347 1.72 0.526 5.29 1.1 10.9 0.659 16.3 0.662 1.93 0.0184 1.93 0.0184 3.89 0.0371 1.23 0.00193 2.46 0.00387 3.73 0.00586 1.13 0.00411 2.25 0.00822 3.41 0.0125 2.93-0.241 4.45-0.815 6.96-2.24 1.99-0.383 3.99-0.726 6-1 0.133-0.736 0.266-1.47 0.402-2.23 0.177-0.976 0.353-1.95 0.535-2.96 0.261-1.44 0.261-1.44 0.527-2.92 0.488-2.64 1.01-5.27 1.54-7.89 1.97-10.1 3.46-20.1 4.27-30.4 0.0684-0.803 0.137-1.61 0.207-2.43 0.0542-0.709 0.108-1.42 0.164-2.15 0.363-2.02 0.363-2.02 1.34-3.93 1.26-2.58 1.52-4.81 1.83-7.66 0.124-1.06 0.249-2.12 0.377-3.21 0.122-1.1 0.244-2.2 0.369-3.34 0.248-2.19 0.499-4.38 0.754-6.57 0.108-0.97 0.215-1.94 0.326-2.94 0.357-2.37 0.357-2.37 1.36-4.37 0.388-2.2 0.737-4.41 1.06-6.62 0.177-1.19 0.353-2.38 0.535-3.6 0.133-0.915 0.266-1.83 0.402-2.77 3.96-0.0289 7.92-0.0468 11.9-0.0625 1.69-0.0126 1.69-0.0126 3.42-0.0254 1.61-0.00483 1.61-0.00483 3.26-0.00977 0.995-0.00524 1.99-0.0105 3.02-0.0159 2.43 0.114 2.43 0.114 4.43 1.11-1.35 14.1-3.58 28-6 42-0.526 3.06-1.05 6.12-1.56 9.19-0.118 0.699-0.237 1.4-0.359 2.12-1.17 7-2.14 14-3.08 21.1-0.175 1.28-0.175 1.28-0.353 2.58-0.152 1.14-0.152 1.14-0.307 2.3-0.341 1.76-0.341 1.76-1.34 2.76-0.238 1.76-0.42 3.52-0.578 5.29-0.11 1.09-0.219 2.18-0.332 3.3-0.224 2.29-0.435 4.58-0.633 6.88-0.711 6.8-1.68 12.4-6.46 17.5-13.9 8.89-37.7 6.18-53.7 6.25-0.669 0.00536-1.34 0.0107-2.03 0.0162-23.4 0.143-23.4 0.143-33.6-5.89-1.63-0.947-1.63-0.947-3.3-1.91-0.788-0.482-1.58-0.964-2.39-1.46v-2l-1.81-0.688c-2.8-1.68-3.69-3.44-5.19-6.31-0.352-0.534-0.704-1.07-1.07-1.62-1.43-3.64-1.27-7.28-1.25-11.1 0.00274-0.843 0.00548-1.69 0.0083-2.56 0.112-6.84 1.08-13.2 2.51-19.9 1.05-5.02 1.71-10 2.37-15.1 0.43-2.7 0.43-2.7 1.43-4.7 0.247-1.32 0.451-2.64 0.633-3.97 0.114-0.818 0.227-1.64 0.344-2.48 0.12-0.886 0.24-1.77 0.363-2.69 0.261-1.88 0.522-3.75 0.783-5.63 0.407-2.96 0.813-5.92 1.22-8.87 0.391-2.85 0.789-5.71 1.19-8.56 0.177-1.31 0.177-1.31 0.357-2.66 0.683-4.88 1.64-9.45 3.12-14.1z" fill="#F17F34"/>
<path transform="translate(670 130)" d="m0 0c0.88-0.00527 1.76-0.0105 2.67-0.016 14.5-0.067 28.6-0.00682 40.4 9.68 1.27 1.4 1.27 1.4 3.27 4.59 0.388 0.565 0.776 1.13 1.18 1.71 7.03 12.2 3 33.1-0.0898 46.1-1.03 4.49-1.68 9.02-2.3 13.6-0.105 0.762-0.209 1.52-0.317 2.31-0.435 3.19-0.865 6.38-1.29 9.58-0.313 2.35-0.635 4.7-0.958 7.05-0.139 1.08-0.139 1.08-0.281 2.19-0.486 3.49-0.948 5.46-2.94 8.45-0.433 2.72-0.786 5.39-1.06 8.12-0.816 7.75-0.816 7.75-1.94 8.88-1.71 0.0871-3.42 0.107-5.13 0.0977-1.55-0.00483-1.55-0.00483-3.13-0.00977-1.09-0.00838-2.18-0.0168-3.3-0.0254-1.64-0.00677-1.64-0.00677-3.31-0.0137-2.71-0.0118-5.42-0.0283-8.13-0.0488-2.26-3.56-2.08-6.06-1.61-10.2 0.133-1.19 0.266-2.38 0.402-3.61 0.226-1.86 0.226-1.86 0.457-3.76 0.135-1.24 0.271-2.49 0.41-3.77 1.07-9.27 1.07-9.27 3.34-12.7 0.5-2.21 0.5-2.21 0.746-4.69 0.171-1.4 0.171-1.4 0.344-2.84 0.114-1 0.229-2 0.347-3.04 0.886-7.36 1.91-14.6 3.25-21.9 2.64-14.6 2.64-14.6-0.688-28.5-2.73-1.3-2.73-1.3-6-2-1.07-0.341-2.14-0.683-3.25-1.03-3.86-0.994-7.13-1.22-11.1-1.23-0.671-0.00191-1.34-0.00383-2.03-0.0058-1.41-0.00135-2.81 0.00227-4.22 0.0107-2.15 0.0108-4.3 3.24e-5 -6.45-0.0127-1.37 0.00132-2.74 0.00388-4.11 0.00781-1.24 0.00226-2.48 0.00451-3.75 0.00684-3.25 0.0239-3.25 0.0239-6.08 2.26-1.99 0.702-3.99 1.37-6 2-1.29 6.04-2.37 12.1-3.32 18.2-0.192 1.22-0.192 1.22-0.388 2.47-2.02 12.9-3.95 25.9-5.89 38.8-0.521 3.47-1.04 6.94-1.56 10.4-0.155 1.04-0.311 2.08-0.47 3.14-1.05 7-2.19 14-3.37 21-4.61 0.954-8.87 1.18-13.6 1.19-0.755 0.0122-1.51 0.0245-2.29 0.0371-3.86 0.0102-6.88-0.031-10.2-2.22 0.509-12.8 2.88-25.4 5-38 0.287-1.72 0.573-3.44 0.859-5.16 0.378-2.27 0.756-4.53 1.14-6.8 0.868-5.18 1.68-10.4 2.47-15.6 0.419-2.73 0.85-5.46 1.29-8.2 0.133-0.833 0.267-1.67 0.404-2.52 0.261-1.63 0.524-3.26 0.789-4.88 0.615-3.84 1.16-7.67 1.56-11.5 0.759-7.09 1.59-14.4 5.49-20.5 15-9.38 37.6-7.07 54.6-7.12z" fill="#F17F34"/>
<path transform="translate(360,130)" d="m0 0c3.79-0.0289 7.58-0.0468 11.4-0.0625 1.08-0.00838 2.16-0.0168 3.27-0.0254 1.55-0.00483 1.55-0.00483 3.12-0.00977 0.953-0.00524 1.91-0.0105 2.89-0.0159 2.34 0.114 2.34 0.114 4.34 1.11-0.89 15.3-0.89 15.3-1.44 21.5-0.0909 1.04-0.0909 1.04-0.184 2.09-0.379 2.41-0.379 2.41-1.31 5.98-1.14 4.53-1.87 9.08-2.54 13.7-0.128 0.852-0.256 1.7-0.388 2.58-0.543 3.61-1.08 7.23-1.61 10.8-0.393 2.65-0.791 5.3-1.19 7.95-0.18 1.23-0.18 1.23-0.363 2.49-0.864 5.74-0.864 5.74-1.98 6.85-0.0148 2.63 0.0523 5.19 0.188 7.81 0.028 1.09 0.028 1.09 0.0566 2.2 0.184 3.53 0.464 5.62 2.67 8.43 8.26 6.16 18.6 5.8 28.4 5.62 2.33-0.0344 4.66-0.0645 6.99-0.0898 1.02-0.018 2.05-0.0359 3.1-0.0544 2.6 0.0818 2.6 0.0818 5.6 1.08l1-3 2.88-0.438c3.02-0.392 3.02-0.392 5.12-1.56 0.425-2.81 0.751-5.55 1-8.38 0.138-1.55 0.284-3.1 0.438-4.65 0.0606-0.69 0.121-1.38 0.184-2.09 0.379-1.89 0.379-1.89 2.38-4.89 0.482-2.85 0.867-5.65 1.18-8.52 0.152-1.27 0.152-1.27 0.306-2.57 0.324-2.72 0.637-5.44 0.948-8.16 1.26-10.9 2.6-21.7 4.88-32.4 0.979-4.72 1.69-9.47 2.37-14.2 0.194-1.33 0.194-1.33 0.393-2.69 0.31-2.13 0.616-4.25 0.92-6.38 4.15-0.0289 8.29-0.0468 12.4-0.0625 1.18-0.00838 2.37-0.0168 3.59-0.0254 1.12-0.00322 2.25-0.00645 3.41-0.00977 1.04-0.00524 2.08-0.0105 3.16-0.0159 2.41 0.114 2.41 0.114 3.41 1.11-0.162 7.22-1.3 14.4-2.46 21.5-0.394 2.59-0.74 5.16-1.04 7.76-0.125 1.08-0.125 1.08-0.252 2.18-0.159 1.4-0.312 2.8-0.458 4.21-0.571 4.99-0.571 4.99-1.77 7.19-1.34 2.88-1.51 5.47-1.79 8.63-0.12 1.24-0.24 2.48-0.363 3.76-0.238 2.62-0.475 5.24-0.711 7.86-0.12 1.24-0.24 2.48-0.363 3.75-0.154 1.71-0.154 1.71-0.311 3.45-0.471 2.73-0.471 2.73-2.47 4.73-0.528 2.91-0.528 2.91-0.781 6.33-0.12 1.27-0.24 2.55-0.363 3.86-0.119 1.35-0.238 2.71-0.355 4.06-0.231 2.63-0.472 5.26-0.719 7.89-0.154 1.76-0.154 1.76-0.311 3.55-0.471 3.31-1.32 6.18-2.47 9.31-0.254 0.73-0.508 1.46-0.77 2.21-3.08 4.47-10.2 5.63-15.2 6.79-13 2.26-26.4 2.18-39.6 2.25-1.98 0.0141-1.98 0.0141-4 0.0286-14.9-0.0496-30.5-0.659-41.8-11.6-8.5-10.5-5.92-23.9-4.66-36.6 0.0868-0.886 0.174-1.77 0.263-2.69 0.669-6.31 0.669-6.31 1.8-7.44 0.298-1.85 0.539-3.71 0.754-5.57 0.132-1.12 0.264-2.25 0.4-3.41 0.135-1.18 0.269-2.37 0.408-3.59 0.139-1.19 0.277-2.38 0.42-3.6 0.343-2.95 0.682-5.89 1.02-8.84h2c-0.04-1.21-0.0799-2.42-0.121-3.67 0.00124-6.31 1.05-12.4 2.06-18.6 0.182-1.17 0.365-2.33 0.553-3.53 1.46-9.25 1.46-9.25 2.51-13.2z" fill="#4E86D5"/>
<path transform="translate(144 131)" d="m0 0c1.68-0.0309 1.68-0.0309 3.39-0.0625 1.08-0.00516 2.16-0.0103 3.27-0.0156 1.46-0.014 1.46-0.014 2.96-0.0283 3.27 0.424 5.1 1.41 7.75 3.36 2.53 3.79 2.22 6.81 2.12 11.2-0.00902 0.75-0.018 1.5-0.0273 2.27-0.0235 1.85-0.0594 3.69-0.0977 5.54-1.43-0.0314-1.43-0.0314-2.88-0.0635-3.61-0.0736-7.21-0.119-10.8-0.156-1.55-0.0198-3.09-0.0469-4.64-0.082-13.4-0.297-25.2 0.607-36.7 8.3h-3c-0.289 0.639-0.578 1.28-0.875 1.94-1.12 2.06-1.12 2.06-3.12 3.06-3.03 5.06-5.2 10.6-7.06 16.2-0.938 2.81-0.938 2.81-1.94 4.81-0.222 1.96-0.392 3.92-0.535 5.88-0.087 1.17-0.174 2.33-0.264 3.54-0.087 1.22-0.174 2.45-0.264 3.71-0.0909 1.23-0.182 2.46-0.275 3.73-0.224 3.05-0.445 6.1-0.662 9.14l3 1 1 6 3 1c0.928 0.959 0.928 0.959 1.88 1.94 2.28 2.21 4.14 3.07 7.12 4.06v2l30 1 1-3c3.29-0.225 6.58-0.427 9.88-0.625 1.41-0.0967 1.41-0.0967 2.84-0.195 0.896-0.0516 1.79-0.103 2.71-0.156 0.827-0.0524 1.65-0.105 2.51-0.159 2.06 0.135 2.06 0.135 4.06 2.14 0.0469 2.86 0.0469 2.86-0.25 6.31-0.0877 1.13-0.175 2.26-0.266 3.43-0.466 3.14-0.963 5.48-2.48 8.26-13.5 9.74-42.4 7.13-58 4.84-6.15-1.11-11.5-3.88-17-6.84l-2-1v-2c-0.597-0.254-1.19-0.508-1.81-0.77-5.74-3.22-9.12-10.2-11.2-16.2-0.985-5.45-1.16-10.7-1.12-16.2 0.00193-0.832 0.00387-1.66 0.00586-2.52 0.0428-6.11 0.355-12.2 1.12-18.2l3-1 0.0781-1.69c0.384-5.17 1.44-8.88 3.95-13.4 1.17-2.14 1.17-2.14 1.97-5.66 1.1-3.59 2.19-4.85 5-7.25 2.96-2.76 2.96-2.76 5-6.19l1-1.81c1.33-0.333 2.67-0.667 4-1 0.699-1.32 1.37-2.65 2-4 0.99-0.33 1.98-0.66 3-1 0.459-0.465 0.918-0.931 1.39-1.41 11-10.8 32.9-11.8 47.2-11.8z" fill="#4D85D4"/>
<path transform="translate(203 78.9)" d="m0 0c1.19-0.00193 1.19-0.00193 2.41-0.00391 0.82 0.00387 1.64 0.00773 2.49 0.0117 0.832-0.00387 1.66-0.00773 2.52-0.0117 6.16 0.01 6.16 0.01 7.29 1.14-0.195 9.3-1.66 18.6-3 27.8-0.178 1.27-0.356 2.54-0.539 3.84-0.173 1.2-0.345 2.4-0.523 3.64-0.234 1.63-0.234 1.63-0.473 3.29-0.465 2.48-0.465 2.48-1.46 3.48-0.291 2.35-0.53 4.7-0.75 7.06-0.946 9.32-2.36 18.6-3.81 27.8-0.112 0.716-0.224 1.43-0.339 2.17-1.91 12.2-1.91 12.2-2.63 15-0.617 2.52-0.876 5.03-1.16 7.62-0.123 1.09-0.246 2.18-0.373 3.31-0.253 2.29-0.503 4.58-0.75 6.88-0.124 1.09-0.249 2.19-0.377 3.31-0.109 0.996-0.218 1.99-0.33 3.02-0.487 2.8-0.487 2.8-1.48 5.18-1.31 3.4-1.65 6.77-2.01 10.4-0.0812 0.736-0.162 1.47-0.246 2.23-0.258 2.34-0.507 4.68-0.754 7.02-0.325 3.08-0.66 6.17-1 9.25-0.0709 0.702-0.142 1.4-0.215 2.13-0.429 3.88-1.29 7.04-2.79 10.6l-1 6h-26c-1.2-2.39-1.17-3.95-1.19-6.62-0.0213-1.23-0.0213-1.23-0.043-2.48 0.23-2.9 0.23-2.9 1.16-6.48 1.18-4.63 1.85-9.27 2.48-14 0.123-0.903 0.246-1.81 0.373-2.74 0.391-2.87 0.777-5.74 1.16-8.61 1.49-11.1 3-22.1 5.01-33.2 1.2-6.61 2.15-13.2 3.05-19.9 0.359-2.6 0.718-5.2 1.08-7.79 0.093-0.672 0.186-1.34 0.282-2.04 1.05-7.59 2.16-15.2 3.28-22.7 0.241-1.63 0.48-3.26 0.719-4.88 0.709-4.84 1.44-9.67 2.22-14.5 0.24-1.52 0.471-3.04 0.694-4.56 2.1-14.2 2.1-14.2 7.14-19.4 3.09-2.08 6.25-2.2 9.89-2.21z" fill="#4981D0"/>
<path transform="translate(309 156)" d="m0 0c8.75 9.81 7.19 20.8 6.58 33.1-0.466 6.89-1.82 12.8-4.52 19.2-0.373 0.933-0.745 1.87-1.13 2.83-0.431 1.08-0.431 1.08-0.871 2.17h-2c-0.186 0.866-0.186 0.866-0.375 1.75-0.646 2.32-1.35 4.2-2.62 6.25-0.99 0.33-1.98 0.66-3 1l-2 3c-4.78 1.78-8.93 2.21-14 2l-1 3c-12.2 0.571-25 0.741-34.8-7.62-4.66-4.55-4.94-9.01-5.19-15.4 0.312-29 0.312-29 7-40l2-1c0.454-0.763 0.908-1.53 1.38-2.31 1.65-2.73 3.16-4.67 5.62-6.69h4l1-3c12.7-3.19 32.2-5.07 43.9 1.69z" fill="#FCFDFE"/>
<path transform="translate(540 154)" d="m0 0c2.17 0.0108 4.35 4.34e-6 6.52-0.0127 1.4 0.00132 2.79 0.00388 4.19 0.00781 1.25 0.00226 2.5 0.00451 3.79 0.00684 3.45 0.267 6.8 0.713 9.35 3.26 0.126 1.73 0.176 3.46 0.188 5.19 0.0142 0.942 0.0284 1.88 0.043 2.86-0.23 2.96-0.23 2.96-1.17 5.6-1.26 3.98-1.77 7.81-2.24 11.9-0.101 0.822-0.202 1.64-0.306 2.49-0.322 2.62-0.636 5.24-0.948 7.86-3.99 33.5-3.99 33.5-6.56 36.1-8.21 1.45-16.7 1.18-25 1.19-1.33 0.0122-2.67 0.0245-4 0.0371-1.26 0.00193-2.51 0.00387-3.81 0.00586-1.14 0.00411-2.28 0.00822-3.46 0.0125-2.73-0.243-2.73-0.243-4.73-2.24-1.09-0.289-2.19-0.578-3.31-0.875-4.85-1.48-7.49-3.33-10.3-7.55-1.95-5.02-1.83-9.61-1.76-14.9 0.00798-1.06 0.016-2.13 0.0242-3.23 0.207-11.6 1.67-22.7 6.35-33.4h2l0.812-2.31c2.1-4.76 4.47-5.83 9.19-7.69l1-2c7.61-2.78 16.2-2.31 24.2-2.26z" fill="#FCFDFE"/>
<path transform="translate(539 130)" d="m0 0c0.808 0.0212 1.62 0.0425 2.45 0.0644 1.7 0.046 3.4 0.0949 5.09 0.147 2.6 0.0783 5.21 0.145 7.81 0.211 1.65 0.0462 3.3 0.0931 4.96 0.141 1.17 0.0298 1.17 0.0298 2.36 0.0602 5.48 0.176 5.48 0.176 7.71 1.29v2c-0.901-0.00786-0.901-0.00786-1.82-0.0159-2.71-0.0207-5.41-0.0338-8.12-0.0466-0.946-0.00838-1.89-0.0168-2.87-0.0254-0.899-0.00322-1.8-0.00645-2.72-0.00977-0.833-0.00524-1.67-0.0105-2.52-0.0159-1.95-0.103-1.95-0.103-2.95 1.11-1.52 0.0718-3.04 0.0839-4.56 0.0625-0.826-0.00902-1.65-0.018-2.5-0.0273-0.638-0.0116-1.28-0.0232-1.93-0.0352 2.22 0 3.2 0.694 5 2 1.61 3.92 2.35 6.94 1 11l4 2v3l3 1c-0.735 0.0251-1.47 0.0501-2.23 0.0759-3.38 0.117-6.76 0.239-10.1 0.362-1.16 0.0393-2.31 0.0786-3.5 0.119-6.74 0.248-13.4 0.663-20.1 1.44l-1 3c-1.13 0.289-2.27 0.578-3.44 0.875-3.72 0.723-3.72 0.723-4.94 3.62l-0.625 2.5-1 2h-2l-0.375 2.69c-0.625 3.31-0.625 3.31-1.59 5.69-3.46 8.8-3.28 18.7-3.41 28-0.0259 1.03-0.0519 2.07-0.0786 3.13-0.0155 6.4 0.63 10.3 4.45 15.5 3.39 2.59 6.96 3.71 11 5l1 1c2.57 0.213 5.12 0.377 7.69 0.5 4.85 0.238 9.53 0.597 14.3 1.5-2 2-2 2-4.88 2.06l-3.12-0.0625c-1.34 0.324-2.67 0.657-4 1-1.67 0.0379-3.33 0.0463-5 0l2 2v4h2v2l-2 2c0.32 2.6 0.32 2.6 1 5l-5-1c1.86 2.29 1.86 2.29 4.8 2.23 1.16-0.0105 2.33-0.0209 3.52-0.0317 1.26-0.00645 2.51-0.0129 3.81-0.0195 1.32-0.0168 2.64-0.0335 4-0.0508 1.34-0.01 2.68-0.0192 4.02-0.0273 3.29-0.0236 6.57-0.0566 9.86-0.0977v1c-23.6 2.34-48.7 3.6-68.1-12-1.94-2.05-2.5-3.2-2.86-5.96h-2c-3.2-7.81-3.43-14.7-3.31-23.1 0.0091-1.28 0.0182-2.57 0.0276-3.89 0.288-22 0.288-22 3.28-28h2l-1-3c1.06-5.41 2.87-10.4 6-15l1-2h2l0.625-2c2.46-5.36 5.67-10.8 11.4-13h3v-3c8.33-4.47 15.4-7.4 25-7v-2c4.96-1.02 9.58-1.07 14.6-0.914z" fill="#548AD9"/>
<path transform="translate(1237,167)" d="m0 0 1 2h-2v4c0.454-0.495 0.908-0.99 1.38-1.5 1.62-1.5 1.62-1.5 3.62-1.5l1 3 3 2 2-1-3 6 4-1v2l-3 2 2 2h2l1 2 3 2 1 3 3 2c0 3 0 3-1 5l2 2-1 3c0.99-0.33 1.98-0.66 3-1v2l-1 1 2 1 1 3c0.99 0.33 1.98 0.66 3 1l-1 2h2v2c0.99 0.33 1.98 0.66 3 1-0.99 0.33-1.98 0.66-3 1 3.18 0.277 3.18 0.277 6-2l0.438 2.31c0.526 2.77 0.526 2.77 1.56 5.69h3v2l5 1c-2 3-2 3-4 4l2.88 0.375c3.12 0.625 3.12 0.625 5.12 2.62v1l2 1-4 2v2l3 1c-1 3-1 3-2 4l2 1-3 1 2.31 0.438c2.69 0.562 2.69 0.562 5.69 1.56l-1 1 2 1c-0.99 1.32-1.98 2.64-3 4l2 1c2 2 2 2 2 3l7 2v3l1 2h-2v4h-3c-1.69-2-1.69-2-3-4-3.17 1.83-3.17 1.83-5 5-0.167 2.63-0.167 2.63 0 5-5.85 0.477-9.25-0.82-14-4-0.655-0.401-1.31-0.802-1.98-1.21-6.66-4.19-12.5-9.29-18.4-14.4-1.08-0.925-2.18-1.83-3.3-2.72-1.46-1.17-2.87-2.39-4.27-3.62v-2l-3-1c-2.04-2.43-2.04-2.43-4.19-5.44-0.715-0.989-1.43-1.98-2.17-3-1.64-2.57-1.64-2.57-1.64-4.57h-2c-1.44-2.18-1.44-2.18-3-5-0.483-0.839-0.967-1.68-1.46-2.54-4.53-8.13-8.01-16.4-10.8-25.3-0.697-2.2-0.697-2.2-1.62-4.27-3.55-8.72-2.31-18.3 0.887-26.9 4.46-1.24 4.46-1.24 7.12-0.0625l1.88 1.06h3l-1 2h2v-2l6-3z" fill="#00B360"/>
<path transform="translate(1045 131)" d="m0 0c1.81-0.0184 1.81-0.0184 3.65-0.0371 1.17-0.00193 2.33-0.00387 3.54-0.00586 1.06-0.00411 2.11-0.00822 3.2-0.0125 3.34 0.266 5.97 0.921 9.05 2.24 2.13 3.19 2.27 4.08 2.25 7.75 0.00773 1.23 0.00773 1.23 0.0156 2.48-0.327 3.41-1.3 6.49-2.27 9.77-1.31 0.0219-1.31 0.0219-2.66 0.0442-3.31 0.0617-6.62 0.136-9.93 0.218-1.42 0.0329-2.84 0.061-4.26 0.084-15.1-0.265-15.1-0.265-28.4 5.57-4.78 5.62-5.47 12.2-6.34 19.3-0.249 1.89-0.499 3.77-0.75 5.66-0.117 0.897-0.235 1.79-0.355 2.72-0.394 2.89-0.879 5.76-1.39 8.62-1.03 5.86-1.61 11.8-2.15 17.7-0.571 5.73-0.571 5.73-1.77 8.02-1.27 2.65-1.5 4.95-1.79 7.87-0.12 1.1-0.24 2.2-0.363 3.34-0.237 2.32-0.474 4.64-0.711 6.95-0.12 1.1-0.24 2.2-0.363 3.33-0.102 1.01-0.205 2.01-0.311 3.05-0.471 2.57-0.471 2.57-2.47 5.57-2.32 0.356-2.32 0.356-5.19 0.328-1.03-0.00516-2.05-0.0103-3.11-0.0156-1.08-0.0206-2.15-0.0412-3.26-0.0625-1.62-0.00773-1.62-0.00773-3.27-0.0156-8.01-0.0806-8.01-0.0806-9.17-1.23 0.156-9.41 1.6-18.7 3.19-27.9 0.457-2.71 0.909-5.41 1.36-8.12 0.118-0.708 0.236-1.42 0.358-2.14 0.931-5.64 1.75-11.3 2.55-17 0.373-2.6 0.748-5.2 1.12-7.79 0.237-1.67 0.468-3.34 0.692-5.02 2.12-15.8 5.49-31.8 18.7-42 0.561-0.489 1.12-0.977 1.7-1.48 3.15-2.08 6.53-3.07 10.1-4.14 0.686-0.217 1.37-0.433 2.08-0.656 8.87-2.72 17.4-2.9 26.7-2.91z" fill="#F17F34"/>
<path transform="translate(317,159)" d="m0 0 7 2 1 5h1l1-5 1 2h2c0.268 0.722 0.536 1.44 0.812 2.19 1.18 2.79 2.59 5.24 4.19 7.81l1 2 1 1.69c1.34 3.1 1.75 5.95 2 9.31l-2 2-3-1c0.0619 0.949 0.124 1.9 0.188 2.88l-0.188 3.12-3 2v3l2 2c2.19 5.42 2.19 5.42 1 9h2c-0.458 3.47-0.891 6.67-2 10h-2l-0.75 2.62c-3.2 8.65-9.86 14.2-17.2 19.4-0.99 0.33-1.98 0.66-3 1l-1 2c-13.2 6.11-25.6 6.79-40 6v-2h4l-1.44-1.25c-1.56-1.75-1.56-1.75-2.06-3.88l-0.5-1.88c-0.99-0.33-1.98-0.66-3-1v-3c4.03-3.75 7.66-4.15 13-4v-2c-0.99-0.33-1.98-0.66-3-1l3.44-0.375 3.56-0.625 1-2c3.57-0.862 7.16-1.48 10.8-2.12 3.49-0.574 3.49-0.574 5.22-3.88h3c1.08-2.65 2.09-5.28 3-8l2-1c0.627-2.16 1.15-4.36 1.62-6.56 0.26-1.2 0.521-2.4 0.789-3.63 0.193-0.927 0.387-1.85 0.586-2.81h2l1-13 2 2c0.197-4.27 0.381-8.54 0.562-12.8 0.0561-1.21 0.112-2.43 0.17-3.68 0.0483-1.16 0.0967-2.33 0.146-3.53 0.0471-1.07 0.0943-2.15 0.143-3.25 0.118-2.82 0.118-2.82-1.02-5.73z" fill="#4F86D5"/>
<path transform="translate(1313 33.9)" d="m0 0c0.994 0.00902 1.99 0.018 3.01 0.0273 1.14 0.0174 1.14 0.0174 2.3 0.0352-3.64 2.43-5.71 2.16-10 2 3.51 1.6 6.14 2.22 10 2l1 3c1.92 0.833 1.92 0.833 4 1l2-1c-0.375 2.44-0.375 2.44-1 5l-2 1 5 2-1 2h-4l1.12 2.19c0.875 2.81 0.875 2.81 0.125 5.56-1.25 2.25-1.25 2.25-3.25 3.25v3h-2v2h-2v2h-2c0.0348 0.687 0.0696 1.37 0.105 2.08 0.0271 0.901 0.0541 1.8 0.082 2.73 0.0348 0.893 0.0696 1.79 0.105 2.71-0.352 2.98-1.2 3.47-3.29 5.48v4h3l1 9 4 1c0.0142 0.615 0.0284 1.23 0.043 1.86 0.146 2.47 0.349 4.74 0.957 7.14 2.46 1.64 2.46 1.64 5 3 0.688 3.62 0.688 3.62 1 7l2 1 1.44 3.38c1.38 3.2 2.12 4.4 4.56 6.62l1 2.12c0.912 2.23 0.912 2.23 4 2.88 3.18 4.83 3.29 8.42 3 14l5 1c0.289 0.949 0.578 1.9 0.875 2.88 0.893 3.18 0.893 3.18 3.12 5.12h2c0.99 0.33 1.98 0.66 3 1l1 5c0.99 0.33 1.98 0.66 3 1l1-2 1.25 2.88c1.75 3.13 2.46 3.99 5.75 5.12v2l5 1v4h2v2l4 1v2h2v2h2v2h2v2h4l2 5h3v3c1.98 0.66 3.96 1.32 6 2v2h2.94 4.06l1-3 1 4 3.25-1.06c4.67-1.17 4.67-1.17 7.75 0.0625l-1 2h-2l1 4h2v2h2v-2h2v2h2l1-2 1 3 2 2 1 2c1.98-0.33 3.96-0.66 6-1v2h2v2c0.99 0.33 1.98 0.66 3 1h-2v2c0.99-0.33 1.98-0.66 3-1l2 1v3c0.887-0.206 1.77-0.412 2.69-0.625 3.54-0.401 5.18 0.0582 8.31 1.62v2c0.99 0.33 1.98 0.66 3 1-3.16 1.58-5.58 0.661-9 0-1.9-0.687-3.8-1.38-5.67-2.13-2.7-1.01-5.43-1.81-8.2-2.62-12.6-3.86-24.5-8.52-35.8-15.3-4.96-2.92-10.1-5.43-15.3-7.93v-2c-0.534-0.0761-1.07-0.152-1.62-0.23-3.35-1.08-5.7-2.98-8.51-5.08-1.05-0.78-2.11-1.56-3.2-2.36-2.48-2.15-3.39-3.42-4.68-6.32l-2.31-0.75c-3.58-1.66-4.5-3.87-6.43-7.22-1.71-2.77-3.87-4.84-6.26-7.03-1.81-1.69-1.81-1.69-3-3v-2h-2c-1.55-1.57-1.55-1.57-3.31-3.69-2.1-2.48-4.17-4.78-6.5-7.06-1.99-2.04-3.12-3.63-4.19-6.25h-2c-1.68-3.05-3.34-6.11-5-9.17-1.07-1.97-2.17-3.93-3.26-5.89-4.17-7.57-7.68-14.8-9.97-23.1-0.667-2.43-1.45-4.7-2.39-7.04-1.34-3.65-2.2-7.16-2.95-11-0.268-1.8-0.268-1.8-1.43-2.79-2.63-15.9-2.22-32-2-48 3.15-1.05 5.39-1.1 8.69-1.06z" fill="#4E87D3"/>
<path transform="translate(249,160)" d="m0 0 4 1 1 5c-0.99 0.33-1.98 0.66-3 1-4.9 9.18-5.12 21-5.69 31.2-0.0485 0.831-0.097 1.66-0.147 2.52-0.644 10.6-0.644 10.6 3.21 20.1 7.84 7.99 21.1 8.56 31.6 10.2v2l-8 1v2l-5 1 1 3c2.02 0.733 2.02 0.733 4 1l0.375 2.38c0.416 2.77 0.416 2.77 2.62 4.62l-2 1c-0.99-0.33-1.98-0.66-3-1v2h14v1c-8.73 0.992-17.1 1.07-25.9 0.312-0.866-0.0656-1.73-0.131-2.63-0.199-11.7-1.14-23.4-7.46-31.6-15.9-2.31-3.79-3.29-7.39-4.26-11.7-0.595-2.71-0.595-2.71-2.68-5.49-0.259-2.16-0.259-2.16-0.266-4.64-0.00258-0.906-0.00516-1.81-0.00781-2.75 0.00773-0.945 0.0155-1.89 0.0234-2.86-0.00773-0.929-0.0155-1.86-0.0234-2.82 0.0152-5.37 0.507-9.86 2.27-14.9h2l1 5 1-2h2v-2l-2-1h2c0.124-1.28 0.248-2.56 0.375-3.88 0.375-3.88 0.375-3.88 2.62-6.12l-1 14 2-3c0.598-0.289 1.2-0.578 1.81-0.875 2.45-1.12 2.45-1.12 4.81-3.75l2.38-2.38h2l-1-2h-2c1.25-3.76 2.69-4.05 6-6v-2h-2c-1.6-4-0.293-7.05 1-11l2 2c0.99-0.33 1.98-0.66 3-1v-2h2v-2z" fill="#548BD9"/>
<path transform="translate(445,130)" d="m0 0c4.15-0.0289 8.29-0.0468 12.4-0.0625 1.18-0.00838 2.37-0.0168 3.59-0.0254 1.12-0.00322 2.25-0.00645 3.41-0.00977 1.04-0.00524 2.08-0.0105 3.16-0.0159 2.41 0.114 2.41 0.114 3.41 1.11-0.162 7.22-1.3 14.4-2.46 21.5-0.394 2.59-0.74 5.16-1.04 7.76-0.0832 0.718-0.166 1.44-0.252 2.18-0.159 1.4-0.312 2.8-0.458 4.21-0.568 4.96-0.568 4.96-1.78 7.32-1.1 2.27-1.38 4-1.6 6.5-0.119 1.25-0.119 1.25-0.24 2.52-0.0741 0.859-0.148 1.72-0.225 2.6-0.155 1.71-0.312 3.42-0.473 5.13-0.0658 0.755-0.132 1.51-0.199 2.29-0.265 2.02-0.265 2.02-1.27 5.02h-3l0.0625 3.25c-0.0495 2.97-0.231 4.98-1.06 7.75-0.341 1.67-0.676 3.33-1 5-3 0-3 0-5-1l1-2-4 2-1-2-3 2-1-2-2 2-1-6h-1l-2 6c-3.71-5.57-2.94-10.4-2.11-16.7 0.105-0.845 0.211-1.69 0.319-2.56 0.225-1.79 0.454-3.58 0.686-5.37 0.348-2.69 0.682-5.38 1.01-8.06 1.14-9.08 2.53-18 4.41-27 0.969-4.72 1.69-9.47 2.37-14.2 0.13-0.886 0.259-1.77 0.393-2.69 0.31-2.13 0.616-4.25 0.92-6.38z" fill="#4982D1"/>
<path transform="translate(1140 150)" d="m0 0c0.883-0.0177 1.77-0.0354 2.67-0.0537 6.98 0.00782 13.6 0.905 19.2 5.37 2.5 3.33 2.97 6.69 2.9 10.8-0.907 4.99-4.16 8.63-8.24 11.5-6.33 3.2-13.4 4.1-20.4 5.25-3.39 0.568-6.78 1.17-10.2 1.76-2.64 0.465-5.29 0.928-7.93 1.39-1.29 0.227-2.59 0.454-3.92 0.687-1.22 0.21-2.44 0.42-3.69 0.637-1.1 0.19-2.19 0.381-3.33 0.577-2.75 0.411-2.75 0.411-5.75 0.411-2.53-5.06-0.759-10.7 0.889-15.8 0.264-0.777 0.527-1.55 0.799-2.36 0.244-0.785 0.489-1.57 0.74-2.38 2.3-6.89 5.98-11.2 12.5-14.6 7.52-3.14 15.6-3.06 23.7-3.16z" fill="#FCFDFE"/>
<path transform="translate(203 78.9)" d="m0 0c1.19-0.00193 1.19-0.00193 2.41-0.00391 0.82 0.00387 1.64 0.00773 2.49 0.0117 0.832-0.00387 1.66-0.00773 2.52-0.0117 6.16 0.01 6.16 0.01 7.29 1.14-0.195 9.3-1.66 18.6-3 27.8-0.178 1.27-0.356 2.54-0.539 3.84-0.173 1.2-0.345 2.4-0.523 3.64-0.156 1.09-0.312 2.17-0.473 3.29-0.465 2.48-0.465 2.48-1.46 3.48-0.357 2.77-0.663 5.53-0.938 8.31-2.2 20.8-2.2 20.8-5.06 23.7l-0.312-1.94-0.688-2.06-3-1c-0.717-1.65-1.38-3.31-2-5l-2-2-2 1-1-2-1 2h-2c0.564-3.27 1.5-4.83 4-7l-1-1-1 3c-1.33 0.343-2.66 0.676-4 1l-2 3c-1-1-1-1-1.25-4.38 0.25-3.62 0.25-3.62 1.75-5.56l1.5-1.06h-1c-0.118-7.06 0.334-14 1-21l-2 4h-2c-0.123-5.97 0.277-11.7 1.12-17.6 0.0928-0.811 0.186-1.62 0.281-2.46 0.859-5.91 2.82-10.2 7.59-14 2.78-0.978 5.36-1.13 8.29-1.13z" fill="#4982D0"/>
<path transform="translate(288 129)" d="m0 0c1.13 0.00399 1.13 0.00399 2.29 0.00806 14.6 0.123 14.6 0.123 18.6 2.12v2c0.905 0.0909 0.905 0.0909 1.83 0.184 0.799 0.0838 1.6 0.168 2.42 0.254 1.18 0.122 1.18 0.122 2.39 0.246 2.18 0.293 4.24 0.737 6.36 1.32v2c1.11 0.268 2.23 0.536 3.38 0.812 3.62 1.19 3.62 1.19 5.62 4.19 0.637 0.276 1.27 0.552 1.93 0.836 2.97 1.67 3.73 3.75 5.2 6.79 0.498 1 0.995 2.01 1.51 3.04 2.74 6.69 3.71 12.8 3.62 20-0.00677 0.787-0.0135 1.57-0.0205 2.38-0.212 12.1-2.93 23.4-6.23 34.9l-3-1 1-5-2-1-1-3-2-2c0.188-2.06 0.188-2.06 1-4 0.99-0.33 1.98-0.66 3-1v-6l4-1c-0.281-1.65-0.575-3.29-0.875-4.94-0.162-0.917-0.325-1.83-0.492-2.78-0.313-1.13-0.313-1.13-0.633-2.29l-2-1c-1.37-2.26-2.01-4.07-2.5-6.69l-0.5-2.31-2-1 1-2h-2l-2 4c-2-1-2-1-3.44-3.56l-1.56-2.44h-3l1 3c0.0158 1.85-0.0332 3.7-0.121 5.54-0.0483 1.07-0.0967 2.15-0.146 3.25-0.0561 1.12-0.112 2.24-0.17 3.39-0.0522 1.13-0.104 2.26-0.158 3.43-0.13 2.8-0.265 5.59-0.404 8.38l-2 1c-0.611-4.74-1.04-9.22-0.875-14 0.0509-6.54-1.37-11.8-5.44-16.9-6.92-5.31-15.6-5.23-23.9-5.19-0.84 0.00193-1.68 0.00387-2.54 0.00586-5.79 0.0404-11.5 0.365-17.2 1.12v-2c0.99-0.33 1.98-0.66 3-1v-2l-4-1c3-1 3-1 4.88-0.375 3.14 0.555 4.55-0.884 7.12-2.62 3.19-1.83 4.08-2 8-2l-4-2 1-4c1.62-0.362 3.25-0.715 4.88-1.06 0.905-0.197 1.81-0.394 2.74-0.598 2.38-0.34 2.38-0.34 4.38 0.66v3l2 1-2 2-1 2h2l1 4 8 2v3h5v-2h4v3l5 2c1.61-2.38 1.61-2.38 3-5l-1-2c-2.02-0.652-2.02-0.652-4-1l1-3-3-2h3c-0.495-0.784-0.99-1.57-1.5-2.38-1.5-2.62-1.5-2.62-1.5-4.62h-4v-2c-7.54-0.86-15-1.28-22.6-1.56-1.1-0.0432-2.2-0.0864-3.33-0.131-2.68-0.105-5.36-0.207-8.04-0.307v-2c3.97-1.31 7.99-1.15 12.1-1.12z" fill="#538AD9"/>
<path transform="translate(360,130)" d="m0 0c3.79-0.0289 7.58-0.0468 11.4-0.0625 1.08-0.00838 2.16-0.0168 3.27-0.0254 1.55-0.00483 1.55-0.00483 3.12-0.00977 0.953-0.00524 1.91-0.0105 2.89-0.0159 2.34 0.114 2.34 0.114 4.34 1.11-1.45 24.8-1.45 24.8-4 34h-2c-0.0909 0.957-0.0909 0.957-0.184 1.93-0.0838 0.826-0.168 1.65-0.254 2.5-0.0812 0.824-0.162 1.65-0.246 2.5-0.316 2.07-0.316 2.07-1.32 3.07-0.232 1.51-0.412 3.04-0.562 4.56-0.0838 0.826-0.168 1.65-0.254 2.5-0.0909 0.957-0.0909 0.957-0.184 1.93l-2-4-3 1 1 5-1-2-3 1c-3.89 0-4.82-0.213-8-2l-4-2v-11c-0.99-0.33-1.98-0.66-3-1h2c-0.04-1.21-0.0799-2.42-0.121-3.67 0.00124-6.31 1.05-12.4 2.06-18.6 0.182-1.17 0.365-2.33 0.553-3.53 1.46-9.25 1.46-9.25 2.51-13.2z" fill="#4982D1"/>
<path transform="translate(190,109)" d="m0 0h1l-1 21h1v5l-2-2c-0.976 2.93-1.08 4.96-1 8l2-5 4 2v-4h2l1 3-1.94 1.31c-2.33 1.6-2.33 1.6-3.06 4.69h2l1-3 2 2 2-1c1.66 2.67 3 5 4 8l2 1 1-2c0.381 2.33 0.713 4.66 1 7l-1 1c-0.541 3.55-0.967 7.11-1.4 10.7-0.598 3.32-0.598 3.32-2.6 6.32h-3v2l3 1-5 4-1-2h-4l-1-6h-2v5l-2 1-3-3 1-3-1-1c-1.34 4.01-1.88 8-2.38 12.2-0.518 3.16-1.23 6-2.12 9.06-1.53 5.46-2.71 11.1-2.5 16.8l2 2c-0.639 0.103-1.28 0.206-1.94 0.312l-2.06 0.688-1 3-1-7h-2c0.565-8.21 1.57-16.3 2.94-24.4 1.47-8.86 2.82-17.7 4.06-26.6 0.723-5.14 1.45-10.3 2.18-15.4 0.216-1.53 0.431-3.05 0.646-4.58 1.22-8.71 2.5-17.4 4.18-26l1 3h2c0.144-0.639 0.289-1.28 0.438-1.94 0.562-2.06 0.562-2.06 1.56-3.06z" fill="#497FCD"/>
<path transform="translate(539 130)" d="m0 0c0.808 0.0212 1.62 0.0425 2.45 0.0644 1.7 0.046 3.4 0.0949 5.09 0.147 2.6 0.0783 5.21 0.145 7.81 0.211 1.65 0.0462 3.3 0.0931 4.96 0.141 1.17 0.0298 1.17 0.0298 2.36 0.0602 5.48 0.176 5.48 0.176 7.71 1.29v2c-0.901-0.00786-0.901-0.00786-1.82-0.0159-2.71-0.0207-5.41-0.0338-8.12-0.0466-0.946-0.00838-1.89-0.0168-2.87-0.0254-0.899-0.00322-1.8-0.00645-2.72-0.00977-0.833-0.00524-1.67-0.0105-2.52-0.0159-1.95-0.103-1.95-0.103-2.95 1.11-1.52 0.0718-3.04 0.0839-4.56 0.0625-0.826-0.00902-1.65-0.018-2.5-0.0273-0.638-0.0116-1.28-0.0232-1.93-0.0352 2.22 0 3.2 0.694 5 2 1.61 3.92 2.35 6.94 1 11l4 2v3c0.99 0.33 1.98 0.66 3 1-0.735 0.0251-1.47 0.0501-2.23 0.0759-3.38 0.117-6.76 0.239-10.1 0.362-1.16 0.0393-2.31 0.0786-3.5 0.119-6.74 0.248-13.4 0.663-20.1 1.44l-1 3c-1.13 0.289-2.27 0.578-3.44 0.875-3.72 0.723-3.72 0.723-4.94 3.62l-0.625 2.5-1 2h-2l-0.375 2.69c-0.569 3.02-1.39 5.52-2.62 8.31l-2-3c-2.56-0.73-2.56-0.73-5-1l-1-6h2l1-2v4h2c-0.348-1.98-0.348-1.98-1-4l-2-1 0.938-2.75c0.79-2.42 1.49-4.78 2.06-7.25l1.88-0.25c2.31-0.563 2.31-0.563 3.38-2.81 0.371-0.959 0.371-0.959 0.75-1.94-0.99 0.33-1.98 0.66-3 1l0.625-1.75c0.469-2.82-0.312-3.78-1.62-6.25v-4c8.33-4.47 15.4-7.4 25-7v-2c4.96-1.02 9.58-1.07 14.6-0.914z" fill="#568BDA"/>
<path transform="translate(373,212)" d="m0 0h1c0.0387 0.905 0.0387 0.905 0.0781 1.83 0.334 5.13 0.334 5.13 2.67 9.61 8.6 5.97 18.5 5.81 28.6 5.62 2.33-0.0344 4.66-0.0645 6.99-0.0898 1.53-0.0269 1.53-0.0269 3.1-0.0544 2.6 0.0818 2.6 0.0818 5.6 1.08l1-3h3v2c1.98-0.66 3.96-1.32 6-2l-1 3c-2.06 0.688-2.06 0.688-4 1v2l-4-1-1 4c-2.31 0.33-4.62 0.66-7 1l-1 3-2-3v4h-4v3l4 2h-2l2 4h15v1c-8.24 0.945-16.4 1.19-24.7 1.19-2.07 0.00218-4.13 0.0204-6.2 0.0393-22.4 0.0989-22.4 0.0989-32.1-5.22 4-1.6 7.05-0.293 11 1v-3h2l2-7-2-1v-2h-4v-2h2l1-3v2h3l-2-1.31-2-1.69v-3l-2-1 1-1c0.0724-2.02 0.0838-4.04 0.0625-6.06-0.00902-1.1-0.018-2.21-0.0273-3.35-0.0116-0.855-0.0232-1.71-0.0352-2.59z" fill="#548BDA"/>
<path transform="translate(157,226)" d="m0 0c2 2 2 2 2.05 4.86-0.098 1.14-0.196 2.28-0.297 3.45-0.0877 1.13-0.175 2.26-0.266 3.43-0.472 3.18-1.01 5.42-2.48 8.26-7.65 4.97-16.9 4.49-25.7 4.25-1.29-0.018-2.57-0.0361-3.9-0.0547-3.14-0.0467-6.28-0.112-9.42-0.195l1-3c0.99 0.33 1.98 0.66 3 1-0.833-2.17-0.833-2.17-3-3v-4c-1.37-1.75-1.37-1.75-3.25-3.19-0.603-0.509-1.21-1.02-1.83-1.54-2-1.32-3.62-1.7-5.92-2.27l-1-2 2.38 0.125c2.79 0.162 2.79 0.162 4.62-2.12 2.34-0.227 2.34-0.227 5.23-0.195 1.55 0.00967 1.55 0.00967 3.12 0.0195 1.62 0.0251 1.62 0.0251 3.27 0.0508 1.09 0.00902 2.18 0.018 3.3 0.0273 2.69 0.0236 5.39 0.0566 8.08 0.0977l1-3c15.5-1.3 15.5-1.3 20-1z" fill="#4982D1"/>
<path transform="translate(585 79.8)" d="m0 0c1.01-0.0184 1.01-0.0184 2.04-0.0371 3.68-0.0109 6.54 0.0507 9.59 2.22 6.89 10.3 0.26 30.7-1.54 42-0.604 4-1.05 8.01-1.46 12h-2v-19h2v-3c-1.93-1.15-1.93-1.15-4-1-1.11 1.88-1.11 1.88-2 4l1 2-3 1c-1.12-3.75-1.12-3.75 0-6h-2v2l-4-2v-4h-2l1-8-2-1v-4h-2l-1 3c-0.209-6.48-8.6e-4 -12.8 2-19 3-1.5 6.08-1.18 9.38-1.19z" fill="#4982D1"/>
<path transform="translate(501,144)" d="m0 0 1 5h-2l1 2 4-2c-0.464 0.897-0.464 0.897-0.938 1.81-1.16 2.28-1.16 2.28-2.06 5.19-2.06 0.688-2.06 0.688-4 1l-0.312 1.69c-0.819 2.75-2.15 4.9-3.69 7.31 0.99 0.33 1.98 0.66 3 1v4h-3c0.267 1.98 0.267 1.98 1 4l3 1c0 3 0 3-1 5h-3l-1 3-2-2-2-1 1 3-0.938 3.25c-1.08 3.82-1.13 6.81-1.06 10.8-0.292 2.01-0.612 4.01-1 6l-3 1-0.312-3.31c-0.72-3.86-1.08-4.19-3.69-6.69-0.188-2.69-0.188-2.69 0-5h-2l-1 4h-1c0.0232-0.82 0.0464-1.64 0.0703-2.48 0.018-1.08 0.0361-2.16 0.0547-3.27 0.0232-1.07 0.0464-2.13 0.0703-3.23-0.19-2.94-0.669-4.54-2.2-7.02h2l-1-3c1.06-5.41 2.87-10.4 6-15l1-2h2l0.625-2c3.33-7.26 7.61-14.4 16.4-12z" fill="#4E86D5"/>
<path transform="translate(203 78.9)" d="m0 0c1.19-0.00193 1.19-0.00193 2.41-0.00391 0.82 0.00387 1.64 0.00773 2.49 0.0117 0.832-0.00387 1.66-0.00773 2.52-0.0117 6.16 0.01 6.16 0.01 7.29 1.14-0.203 9.29-1.63 18.6-2.94 27.8-0.17 1.27-0.339 2.54-0.514 3.84-0.17 1.2-0.339 2.4-0.514 3.64-0.151 1.09-0.301 2.17-0.457 3.29-0.191 0.818-0.382 1.64-0.578 2.48l-2 1v-13l-2-1-1-2h-2l-2 2v3h-3v-3l-1.88 1.06-2.12 0.938-2-1c-0.625-2.56-0.625-2.56-1-5-0.99-0.33-1.98-0.66-3-1v-2h-3c-0.288-7.06-0.341-13.2 4.38-18.9 3.59-2.9 6.39-3.25 10.9-3.26z" fill="#5087D5"/>
<path transform="translate(1339 28.9)" d="m0 0c1.25-0.00129 2.51-0.00258 3.8-0.00391 1.97 0.0058 1.97 0.0058 3.98 0.0117 1.29-0.00387 2.57-0.00773 3.9-0.0117 19.1 0.0195 19.1 0.0195 26 3.14 1.37 0.327 2.75 0.638 4.12 0.938 3.2 0.754 4.69 1.55 6.88 4.06 1.33 0.352 2.66 0.688 4 1l1 2h5v4c-3.01 0.934-3.87 1.04-7 0-1.67-0.0685-3.33-0.0848-5-0.0625-0.866 0.00902-1.73 0.018-2.62 0.0273-0.784 0.0116-1.57 0.0232-2.38 0.0352h-3c-0.454 0.516-0.908 1.03-1.38 1.56l-1.62 1.44c-2.67-0.261-4.6-0.8-7-2v2c-5.36 0.365-5.36 0.365-8.19-1.25-1.81-1.75-1.81-1.75-3.38-3.88-1.38-2.17-1.38-2.17-4.44-2.88-1.67 0.312-3.34 0.649-5 1-7.69 0.473-14.1 0.663-21-3h-3v-2c2.65-1.46 3.89-2 7-2v-3c3.31-1.1 5.8-1.13 9.29-1.13z" fill="#497FCD"/>
<path transform="translate(196,217)" d="m0 0h1c-1.48 22.2-1.48 22.2-4 28l-1 6h-26c-2.67-5.34-1.1-12.5 0.488-18 0.913-3.62 1.19-7.32 1.51-11h2c1.62 2.5 1.62 2.5 3 5v-2c5.78-0.236 10.5 0.132 16 2 0.248-0.639 0.495-1.28 0.75-1.94 1.25-2.06 1.25-2.06 3.38-2.81 0.619-0.0825 1.24-0.165 1.88-0.25l1-5z" fill="#4E86D5"/>
<path transform="translate(144 131)" d="m0 0 3.39-0.0625c1.08-0.00516 2.16-0.0103 3.27-0.0156 1.46-0.014 1.46-0.014 2.96-0.0283 3.27 0.424 5.1 1.41 7.75 3.36 2.53 3.79 2.22 6.81 2.12 11.2-0.00902 0.75-0.018 1.5-0.0273 2.27-0.0235 1.85-0.0594 3.69-0.0977 5.54-0.993-0.0105-1.99-0.0209-3.01-0.0317-3.71-0.0364-7.42-0.0592-11.1-0.0781-1.6-0.01-3.2-0.0236-4.8-0.041-2.31-0.0245-4.62-0.0357-6.93-0.0444-0.708-0.0103-1.42-0.0206-2.14-0.0313-4.67-0.00104-8.54 0.874-13 2.23h-4l2-5 1.81 0.688c0.722 0.103 1.44 0.206 2.19 0.312 1.77-1.35 1.77-1.35 3-3v2c2.93-0.267 2.93-0.267 6-1 2.28-2.82 2.28-2.82 2-6l1-1-2-1c0.875-3.88 0.875-3.88 2-5l-1-2h-11v-2c6.53-1.17 13-1.22 19.6-1.25z" fill="#548AD9"/>
<path transform="translate(289,231)" d="m0 0c1.34-0.324 2.67-0.657 4-1 2.25 0.938 2.25 0.938 4 2v3l5-1-1-1 2-2h2c0.433 0.959 0.433 0.959 0.875 1.94 0.953 2.21 0.953 2.21 3.12 3.06 1.33 0.667 2.67 1.33 4 2 0 3 0 3-1.01 4.49-11.7 8.93-28.1 8.27-42 7.51v-2h4l-1.44-1.25c-1.56-1.75-1.56-1.75-2.06-3.88l-0.5-1.88c-0.99-0.33-1.98-0.66-3-1v-3c4.03-3.75 7.66-4.15 13-4v-2c-0.99-0.33-1.98-0.66-3-1 4.86-0.953 7.5-0.947 12 1z" fill="#4D85D4"/>
<path transform="translate(1313 33.9)" d="m0 0c0.994 0.00902 1.99 0.018 3.01 0.0273 1.14 0.0174 1.14 0.0174 2.3 0.0352-3.64 2.43-5.71 2.16-10 2 3.51 1.6 6.14 2.22 10 2l1 3c1.92 0.833 1.92 0.833 4 1l2-1c-0.375 2.44-0.375 2.44-1 5l-2 1 5 2-1 2h-4l1.12 2.19c0.875 2.81 0.875 2.81 0.125 5.56-1.25 2.25-1.25 2.25-3.25 3.25v3h-2v2h-2v2h-2c0.0348 0.687 0.0696 1.37 0.105 2.08 0.0271 0.901 0.0541 1.8 0.082 2.73 0.0348 0.893 0.0696 1.79 0.105 2.71-0.349 2.95-1.02 3.65-3.29 5.48l-2 2c-0.0561-1.03-0.0561-1.03-0.113-2.08-0.0986-1.35-0.0986-1.35-0.199-2.73-0.087-1.34-0.087-1.34-0.176-2.71-0.272-2.52-0.272-2.52-1.99-3.87-3.54-3.76-2.64-10.7-2.62-15.6 0.00322-1.29 0.00645-2.57 0.00977-3.9 0.00835-1.34 0.0168-2.68 0.0254-4.01 0.00502-1.37 0.00958-2.73 0.0137-4.1 0.0117-3.32 0.0282-6.64 0.0488-9.97 3.15-1.05 5.39-1.1 8.69-1.06z" fill="#4E86D5"/>
<path transform="translate(489,219)" d="m0 0c1.96 2.25 3.66 4.33 5 7h4 3v2h2v2c2.97 0.33 5.94 0.66 9 1v2h-5c0.351 0.722 0.701 1.44 1.06 2.19 1.04 3.12 0.828 4.69-0.0625 7.81h-3v3l4 2c-8.61 0.441-15.5 0.489-23-4l-2.5-1.25c-2.46-2.88-2.35-6.13-2.5-9.75-0.0748-0.933-0.15-1.87-0.227-2.83-0.379-7.45-0.379-7.45 2.54-10.9 2.69-1.25 2.69-1.25 5.69-0.25z" fill="#4E86D5"/>
<path transform="translate(228,212)" d="m0 0 2 1c2.1-0.399 2.1-0.399 4-1l1 4 2-1c0.182 0.543 0.364 1.09 0.551 1.64 0.251 0.715 0.503 1.43 0.762 2.17 0.365 1.06 0.365 1.06 0.738 2.14 1.04 2.24 2.05 3.48 3.95 5.04 0.99 0.33 1.98 0.66 3 1v2h1v-3c3.08 1.03 3.84 1.75 6 4l3 2-2 3h-4l1 8h-3l-1 3c-3-1-3-1-4-2v1c-6.03 0.398-9.16-1.2-13.9-4.76-3.04-3.27-3.2-5.81-3.21-10.2 0.0425-1.01 0.0851-2.02 0.129-3.07-0.0182-2.4-0.039-4.79-0.0625-7.19 0.0158-1.94 0.0348-3.88 0.0625-5.81h2v-2z" fill="#4E86D5"/>
<path transform="translate(569,132)" d="m0 0 2 1 1 3 2 1v5h-5v3h-2v2h2v5h-2l1 3c-0.438 2.69-0.438 2.69-1 5h-2v-4c-0.904-0.133-1.81-0.266-2.74-0.402-1.18-0.177-2.36-0.353-3.57-0.535-1.17-0.174-2.34-0.348-3.55-0.527-3.14-0.535-3.14-0.535-6.14-1.54v-3l-4-1c-0.826-2.89-1-4.89-1-8-0.298-1.34-0.622-2.68-1-4h-3c-2-1-2-1-3-3 1.16 0.0174 1.16 0.0174 2.34 0.0352 1.5 0.0135 1.5 0.0135 3.04 0.0273 1.5 0.0174 1.5 0.0174 3.02 0.0352 2.59 0.0824 2.59 0.0824 4.6-1.1 1.45-0.016 2.9 0.0342 4.35 0.121 0.851 0.0483 1.7 0.0967 2.58 0.146 0.889 0.0561 1.78 0.112 2.7 0.17 0.897 0.0522 1.79 0.104 2.72 0.158 2.22 0.13 4.44 0.265 6.66 0.404v-2z" fill="#4981D0"/>
<path transform="translate(258 226)" d="m0 0c1.06 0.295 2.13 0.59 3.22 0.895 6.32 1.65 12.6 2.82 19.1 3.81v2l-8 1v2l-5 1 1 3c2.02 0.733 2.02 0.733 4 1l0.375 2.38c0.416 2.77 0.416 2.77 2.62 4.62l-2 1c-0.99-0.33-1.98-0.66-3-1v2h14v1c-8.73 0.992-17.1 1.07-25.9 0.312-0.866-0.0656-1.73-0.131-2.63-0.199-6.12-0.6-11-2.31-16.5-5.11 1.38-1.5 1.38-1.5 3-3h2v2c2.95 0.305 2.95 0.305 4.62-1.25 1.51-1.92 1.96-3.36 2.38-5.75l-2-1 5-5-2-3c1.86-2.59 2.46-3.06 5.71-2.71z" fill="#558BD9"/>
<path transform="translate(556,213)" d="m0 0h2v18l-2-1-1 2 2 1 1 2-5 1-1-3h-7l-0.188 2.31c-0.812 2.69-0.812 2.69-3.25 4.5-2.56 1.19-2.56 1.19-4.56 1.19l1 5c3.65 0.752 7.32 1.4 11 2v1c-6.85 0.844-13.7 1.28-20.6 1.56-1.51 0.0648-1.51 0.0648-3.06 0.131-2.46 0.105-4.92 0.207-7.38 0.307l-1-3h4l-1-5c0.99-0.33 1.98-0.66 3-1v-2c-0.99 0.33-1.98 0.66-3 1l0.125-2.38c0.162-2.79 0.162-2.79-2.12-4.62l1-1c2 0 4 0.00268 6 0.0312 2.14-0.0334 3.96-0.425 6-1.03h3l-4-2 23-2 3-15z" fill="#4981D0"/>
<path transform="translate(1408,194)" d="m0 0 1 4 3.25-1.06c4.67-1.17 4.67-1.17 7.75 0.0625l-1 2h-2l1 4h2v2h2v-2h2v2h2l1-2 1 3 2 2 1 2c1.98-0.33 3.96-0.66 6-1v2h2v2c0.99 0.33 1.98 0.66 3 1h-2v2c0.99-0.33 1.98-0.66 3-1l2 1v3c0.887-0.206 1.77-0.412 2.69-0.625 3.54-0.401 5.18 0.0582 8.31 1.62v2c0.99 0.33 1.98 0.66 3 1-3.16 1.58-5.58 0.661-9 0-1.9-0.687-3.8-1.38-5.67-2.13-2.7-1.01-5.43-1.81-8.2-2.62-26.3-7.99-26.3-7.99-34.1-14.2l-1-3c-0.99-0.33-1.98-0.66-3-1v-2c7.88-1 7.88-1 9-1l1-3z" fill="#4982D1"/>
<path transform="translate(1425,54)" d="m0 0c6.99 0.823 11.3 5.14 16 10l2.81 2.12 2.19 1.88v3h2v2c0.99 0.33 1.98 0.66 3 1 4 4.46 4 4.46 4 7-2.93-0.628-5.36-1.59-8-3v3h2l-1 2c-1.94-0.312-1.94-0.312-4-1l-1-3-2-1v2l-2-1v-1l-4 2 1 4-6-3v-2l3-2c-3.01-0.934-3.87-1.04-7 0l-1-2 1.94-0.812c2.39-1.07 2.39-1.07 3.06-4.19l-2-1c-1-2-1-2-1-6 1-3 1-3 3-5h-2c-1.62-2-1.62-2-3-4z" fill="#4E86D5"/>
<path transform="translate(585 79.8)" d="m0 0c1.01-0.0184 1.01-0.0184 2.04-0.0371 3.68-0.0109 6.54 0.0507 9.59 2.22 4.26 6.39 2.33 17.2 1 24.4-0.319 1.52-0.647 3.05-1 4.56h-1l-1-11c-3.74 0.571-3.74 0.571-5 2-1.67 0.0406-3.33 0.0427-5 0l-0.312-2.38c-0.463-2.96-0.463-2.96-3.69-4.62-0.512-2.38-0.512-2.38-0.688-5.12-0.0986-1.37-0.0986-1.37-0.199-2.76-0.0374-0.699-0.0748-1.4-0.113-2.12l-4-1v-3c3-1.5 6.08-1.18 9.38-1.19z" fill="#4F86D5"/>
<path transform="translate(205 78.8)" d="m0 0c0.95-0.0142 1.9-0.0284 2.88-0.043 2.56 0.23 2.56 0.23 5.56 2.23v2h-4l1 4c0.99-0.33 1.98-0.66 3-1-0.835 2.5-1.79 4.67-3 7l-2-1-0.125 1.88c-0.875 2.12-0.875 2.12-3.75 3.38-2.85 0.685-5.22 0.75-8.12 0.75v-2l-4-1v4h-3l-1 2c-0.288-7.06-0.341-13.2 4.38-18.9 3.94-3.19 7.2-3.28 12.2-3.31z" fill="#538AD9"/>
<path transform="translate(1305,71)" d="m0 0h3c0.133 0.915 0.266 1.83 0.402 2.77 0.177 1.19 0.353 2.38 0.535 3.6 0.174 1.18 0.348 2.37 0.527 3.59 0.37 2.95 0.37 2.95 1.54 5.04h3c0.0374 0.941 0.0748 1.88 0.113 2.85 0.0657 1.25 0.131 2.49 0.199 3.77 0.087 1.84 0.087 1.84 0.176 3.73 0.701 5 2.44 8.35 5.64 12.2 2 2.6 2.35 4.26 2.88 7.44l2 1v5h4l0.586 6.15c0.137 0.61 0.273 1.22 0.414 1.85l2 1 1-2c1.04 3.38 1.08 6.48 1 10l4 1v2h-2l1 4-4-2v-2h-2c-1.68-3.05-3.34-6.11-5-9.17-1.07-1.97-2.17-3.93-3.26-5.89-4.17-7.57-7.68-14.8-9.97-23.1-0.667-2.43-1.45-4.7-2.39-7.04-1.34-3.65-2.2-7.16-2.95-11-0.268-1.8-0.268-1.8-1.43-2.79-0.234-2.02-0.413-4.04-0.562-6.06-0.0838-1.1-0.168-2.21-0.254-3.35-0.0909-1.28-0.0909-1.28-0.184-2.59z" fill="#568CDA"/>
<path transform="translate(206,155)" d="m0 0h1c-0.117 1.81-0.244 3.63-0.375 5.44-0.0696 1.01-0.139 2.02-0.211 3.06-0.314 2.66-0.741 5.03-1.36 7.62-1.6 6.91-2.17 14-2.91 21-0.18 1.61-0.18 1.61-0.363 3.25-0.102 0.964-0.205 1.93-0.311 2.92-0.485 2.8-1.36 5.11-2.47 7.72-0.443 2.43-0.443 2.43-0.625 4.81-0.0748 0.79-0.15 1.58-0.227 2.39-0.0735 0.888-0.0735 0.888-0.148 1.79l-2-1c-0.729-2.77-1-5.13-1-8l-2-2c0.375-3.12 0.375-3.12 1-6l-5-1c-1-3-1-3-1-6-0.0619-0.846-0.124-1.69-0.188-2.56l0.188-2.44 3-2c0.99 0.33 1.98 0.66 3 1v-2h2l-2-5c3-1 3-1 5-1v-4c0.99-0.33 1.98-0.66 3-1 1.75-4.67 2.34-9.22 2.75-14.2 0.246-1.82 0.246-1.82 1.25-2.82z" fill="#4982D0"/>
<path transform="translate(295,231)" d="m0 0 2 1v3l5-1-1-1 2-2h2c0.289 0.639 0.578 1.28 0.875 1.94 0.953 2.21 0.953 2.21 3.12 3.06 1.33 0.667 2.67 1.33 4 2 0 3 0 3-1.26 4.59-3.06 2.48-6.67 3.38-10.4 4.6-1.15 0.409-1.15 0.409-2.33 0.826-5.54 1.85-10.2 2.25-16 1.99v-5h2l2-4-2-1 1-2 2.88-0.938c2.97-1.01 4.28-1.6 6.12-4.06v-2z" fill="#4A82D1"/>
<path transform="translate(294,136)" d="m0 0v3l2 1-2 2-1 2h2c0.826 2.89 1 4.89 1 8-0.83 0.0376-0.83 0.0376-1.68 0.0759-14.2 0.63-14.2 0.63-28.3 1.92v-2c0.99-0.33 1.98-0.66 3-1v-2l-4-1c3-1 3-1 4.88-0.375 3.14 0.555 4.55-0.884 7.12-2.62 3.19-1.83 4.08-2 8-2l-4-2 1-4c1.44-0.364 2.87-0.716 4.31-1.06 0.801-0.197 1.6-0.394 2.43-0.598 2.26-0.34 2.26-0.34 5.26 0.66z" fill="#538AD9"/>
<path transform="translate(1314,95)" d="m0 0 5 1c0.0142 0.615 0.0284 1.23 0.043 1.86 0.146 2.47 0.349 4.74 0.957 7.14 2.46 1.64 2.46 1.64 5 3 0.688 3.62 0.688 3.62 1 7l2 1 1.44 3.38c1.38 3.2 2.12 4.4 4.56 6.62l1 2.12c0.912 2.23 0.912 2.23 4 2.88 3.18 4.83 3.29 8.42 3 14h3l-0.562 2.38c-0.697 2.6-0.697 2.6 0.562 4.62-2.25-0.125-2.25-0.125-5-1-2.38-2.75-2.38-2.75-4-6 0.25-2.88 0.25-2.88 1-5l-3-1-1-8-4-1v-8h-4l-1-5h-2v-6l-2-1c-3.36-2.63-4.57-6.06-6-10-0.188-2.94-0.188-2.94 0-5z" fill="#4E86D4"/>
<path transform="translate(549,133)" d="m0 0c2.19 0.0902 4.38 0.247 6.56 0.438 1.2 0.102 2.4 0.204 3.63 0.309 0.927 0.0838 1.85 0.168 2.81 0.254v1l-8 1c1.05 1.16 1.05 1.16 3 2-0.99 1.65-1.98 3.3-3 5l-4-1-1 2h2 1c1.34-0.324 2.67-0.657 4-1v4c3.54 3.54 7.42 5.2 12 7l-1 6h-2v-4c-0.904-0.133-1.81-0.266-2.74-0.402-1.18-0.177-2.36-0.353-3.57-0.535-1.17-0.174-2.34-0.348-3.55-0.527-3.14-0.535-3.14-0.535-6.14-1.54v-3l-4-1c-0.826-2.89-1-4.89-1-8-0.298-1.34-0.622-2.68-1-4h-3c-2-1-2-1-3-3 0.782 0.0116 1.56 0.0232 2.37 0.0352 1.01 0.00902 2.02 0.018 3.07 0.0273 1.51 0.0174 1.51 0.0174 3.06 0.0352 2.44 0.188 2.44 0.188 3.5-1.1z" fill="#4F86D5"/>
<path transform="translate(337,150)" d="m0 0c2.96 1.48 3.08 3.34 4.12 6.44 5.22 17.7 0.802 36.3-4.12 53.6-0.99-0.33-1.98-0.66-3-1l1-5-2-1-1-3-2-2c0.188-2.06 0.188-2.06 1-4l3-1v-6l4-1 1-6c0.99 0.33 1.98 0.66 3 1l-0.5-3.5c-0.532-4.2-0.576-8.27-0.5-12.5h-2l0.188-2.19c0.0288-2.9 0.0288-2.9-1.75-5.31-1.44-2.5-1.44-2.5-1.12-5.31l0.688-2.19z" fill="#568BD9"/>
<path transform="translate(1366,184)" d="m0 0c3.72 3.26 5.76 6.98 7.88 11.4 0.342 0.699 0.683 1.4 1.03 2.12 6.99 14.4 6.99 14.4 9.09 20.5l-1 2c-2-2-2-2-2.5-4.06l-0.5-1.94-2-1v-5l-4-1 1 1-2 1c-1.13 2.02-1.13 2.02-2 4-2-3-2-3-2-5-0.99-0.33-1.98-0.66-3-1l-1-10-4 1c0-4 0-4 2-6 0.99 0.33 1.98 0.66 3 1-1.4-3.55-1.4-3.55-3-7h3v-2z" fill="#01B562"/>
<path transform="translate(350,194)" d="m0 0h2c0.0606 0.785 0.121 1.57 0.184 2.38 0.0838 1.05 0.168 2.1 0.254 3.18 0.0812 1.03 0.162 2.07 0.246 3.13 0.215 2.25 0.503 4.49 0.855 6.72 0.496 3.86 0.486 7.51 0.398 11.4-0.0875 6.28 0.426 12.1 2.06 18.2-4.78-0.773-4.78-0.773-6.75-2.81-5.08-8.89-2.28-22.3-1.31-32.1 0.0868-0.886 0.174-1.77 0.263-2.69 0.669-6.31 0.669-6.31 1.8-7.44z" fill="#568BDA"/>
<path transform="translate(138,131)" d="m0 0 2 4h3v2l2 1h-2v2l2 1-0.562 1.69c-0.513 2.71-0.102 4.66 0.562 7.31h-6v2c-4.67 0.667-9.33 1.33-14 2-0.669 0.0956-1.34 0.191-2.03 0.29-1.66 0.237-3.32 0.474-4.97 0.71l2-5 1.81 0.688c0.722 0.103 1.44 0.206 2.19 0.312 1.77-1.35 1.77-1.35 3-3v2c2.93-0.267 2.93-0.267 6-1 2.28-2.82 2.28-2.82 2-6l1-1-2-1c0.875-3.88 0.875-3.88 2-5l-1-2h-11v-2c4.72-0.771 9.22-1.1 14-1z" fill="#5188D5"/>
<path transform="translate(464,160)" d="m0 0c1.35 7.03 0.407 13-1 20h-2c0.0232 0.748 0.0464 1.5 0.0703 2.27 0.0271 1.48 0.0271 1.48 0.0547 2.98 0.0232 0.975 0.0464 1.95 0.0703 2.95-0.197 2.82-0.75 4.41-2.2 6.8l-5-1c-1.12-3.75-1.12-3.75 0-6l-2 1v-3l3-2-3-2h2l1-4h1l-1-6h-2l-1 2-1-3 6-4 2 4c0.99-0.33 1.98-0.66 3-1l-1.44-1.19c-1.91-2.22-2.18-3.95-2.56-6.81 4.88-2 4.88-2 6-2z" fill="#497FCD"/>
<path transform="translate(530,230)" d="m0 0c6.62-0.125 6.62-0.125 10 1v2h-3l1 3-5-1c0.227 0.598 0.454 1.2 0.688 1.81l0.312 2.19c-1.38 1.69-1.38 1.69-3 3l-1 1 1 2c-0.812 2.56-0.812 2.56-3 5-3.32 0.748-6.6 0.93-10 1l-1-3h4l-1-5c0.99-0.33 1.98-0.66 3-1v-2c-0.99 0.33-1.98 0.66-3 1l0.125-2.38c0.162-2.79 0.162-2.79-2.12-4.62l1-1c2 0 4 0.00268 6 0.0312 2.14-0.0334 3.96-0.425 6-1.03h3l-4-2z" fill="#4E86D5"/>
<path transform="translate(188,188)" d="m0 0c1.76 3.09 2 4.23 2 8l4 2v7l2-2c0.688 1.62 0.688 1.62 1 4-1.44 3.25-1.44 3.25-3 6h-3l2-4c-0.99-0.33-1.98-0.66-3-1l-1 2-2-1c-0.625-2.56-0.625-2.56-1-5l-3 2-2-1-3 3c0.115-1.73 0.243-3.46 0.375-5.19 0.0696-0.963 0.139-1.93 0.211-2.92 0.416-2.91 1.21-5.22 2.41-7.89h4v2l1 1 0.438-2.94c0.562-3.06 0.562-3.06 1.56-4.06z" fill="#497FCD"/>
<path transform="translate(1361,170)" d="m0 0 2.31 0.938c1.88 0.741 3.77 1.42 5.69 2.06v3c0.598 0.268 1.2 0.536 1.81 0.812 2.21 1.2 3.62 2.23 5.19 4.19v3l1.94 0.375 2.06 0.625 1 2h4l-1 6c-4.27-1.44-7.28-3.58-10.8-6.44-0.964-0.782-1.93-1.56-2.92-2.37-2.33-2.19-2.33-2.19-3.33-5.19l-5-2c-1-3-1-3-1-7z" fill="#588ED9"/>
<path transform="translate(443,142)" d="m0 0c4.83 2.48 4.83 2.48 5.69 5.12l0.312 1.88 2 1c-1.88 4.75-1.88 4.75-3 7h-2l0.125 3.31c0.0192 5.35-1.05 10.5-2.12 15.7-2.67-2.58-3.22-4.6-3.33-8.19 0.0106-1.6 0.0371-3.21 0.0781-4.81 0.00516-0.807 0.0103-1.61 0.0156-2.45 0.0489-3.71 0.262-6.97 1.23-10.6 0.209-1.41 0.397-2.83 0.562-4.25l0.438-3.75z" fill="#4A80CE"/>
<path transform="translate(157,230)" d="m0 0v12h-2l-1 3h-8l-1-3c0.495-0.763 0.99-1.53 1.5-2.31 1.88-3.37 1.44-5.03 0.5-8.69 3.47-1.16 6.36-1.07 10-1z" fill="#497FCD"/>
<path transform="translate(539 130)" d="m0 0c0.808 0.0212 1.62 0.0425 2.45 0.0644 1.7 0.046 3.4 0.0949 5.09 0.147 2.6 0.0783 5.21 0.145 7.81 0.211 1.65 0.0462 3.3 0.0931 4.96 0.141 1.17 0.0298 1.17 0.0298 2.36 0.0602 5.48 0.176 5.48 0.176 7.71 1.29v2c-15 0.114-30 0.0126-45-1v-2c4.96-1.02 9.58-1.07 14.6-0.914z" fill="#6293DA"/>
<path transform="translate(458,198)" d="m0 0h3c0.125 2.88 0.125 2.88 0 6l-2 2c-0.528 2.91-0.528 2.91-0.781 6.33-0.18 1.91-0.18 1.91-0.363 3.86-0.119 1.35-0.238 2.71-0.355 4.06-0.231 2.63-0.472 5.26-0.719 7.89-0.102 1.17-0.205 2.34-0.311 3.55-0.741 5.21-2.05 9.27-5.47 13.3l-1-4h2c-0.0232-1.16-0.0464-2.32-0.0703-3.51-0.0188-1.54-0.037-3.08-0.0547-4.62-0.0168-0.761-0.0335-1.52-0.0508-2.3-0.0397-4.6 0.417-8.23 2.18-12.6h2v-13h2l-0.562-1.81c-0.438-2.19-0.438-2.19 0.562-5.19z" fill="#548BD9"/>
<path transform="translate(193,230)" d="m0 0 2 1c0.204 5.2 0.206 9.2-2 14l-1 6h-26c-1.24-2.47-1.13-4.18-1.12-6.94-0.00258-0.875-0.00516-1.75-0.00781-2.65 0.133-2.41 0.133-2.41 1.13-5.41h2c0.027 1.62 0.0464 3.25 0.0625 4.88 0.0116 0.905 0.0232 1.81 0.0352 2.74-0.0977 2.38-0.0977 2.38-1.1 4.38h2v2h19c1.31-3.92 2.27-7.06 3-11 0.654-3 1.33-6 2-9z" fill="#5B8FDA"/>
<path transform="translate(536,134)" d="m0 0-1 3h-3l-1 3-4-1-1-4v3c-4.33 2.23-7.28 1.92-12 1v-5c7.24-2.41 14.9-2.76 22 0z" fill="#4F87D6"/>
<path transform="translate(137 152)" d="m0 0c0.727 0.00141 1.45 0.00283 2.2 0.00429 2.31 0.00558 4.63 0.0181 6.94 0.0309 1.57 0.00502 3.14 0.00958 4.71 0.0137 3.85 0.011 7.69 0.0283 11.5 0.0488v2l2 1h-39v-2c3.83-1.24 7.63-1.13 11.6-1.1z" fill="#EBF2F8"/>
<path transform="translate(190,109)" d="m0 0h1l-1 21h1v5l-2-2-3 2c-1.07-3.69-1.04-6.97-0.938-10.8 0.0199-2.21 0.0199-2.21-0.59-4.27-0.743-3.07-0.00446-5.88 0.527-8.95l1 3h2c0.144-0.639 0.289-1.28 0.438-1.94 0.562-2.06 0.562-2.06 1.56-3.06z" fill="#497FCD"/>
<path transform="translate(206,155)" d="m0 0h1c-0.117 1.81-0.244 3.63-0.375 5.44-0.0696 1.01-0.139 2.02-0.211 3.06-0.314 2.66-0.741 5.03-1.36 7.61-1.61 6.93-2.17 14-2.91 21.1-0.18 1.61-0.18 1.61-0.363 3.26-0.102 0.969-0.205 1.94-0.311 2.94-0.461 2.55-1.19 4.37-2.47 6.61-1.6-1.6-1.25-3.21-1.31-5.44 0.0333-8.39 2.32-16.5 4.31-24.6h-3v-2c0.99-0.33 1.98-0.66 3-1 1.75-4.67 2.34-9.22 2.75-14.2 0.246-1.82 0.246-1.82 1.25-2.82z" fill="#558BD7"/>
<path transform="translate(482,164)" d="m0 0 3 3c-0.309 0.763-0.619 1.53-0.938 2.31-1.4 4.86-1.72 9.66-2.06 14.7h-3l-2 2c-0.309-0.949-0.619-1.9-0.938-2.88-0.936-2.99-0.936-2.99-2.06-5.12h2l-1-3c0.938-3.19 0.938-3.19 2-6h4l1-5z" fill="#4982D1"/>
<path transform="translate(556,213)" d="m0 0h2v18l-2-1-1 2 2 1 1 2-5 1-1-3c-0.742 0.0412-1.48 0.0825-2.25 0.125-2.84-0.129-4.34-0.696-6.75-2.12v-2l10-1 3-15z" fill="#4A83D2"/>
<path transform="translate(66,187)" d="m0 0h3c1.29 8.57 1.29 8.57 0 12h-2l1 18h1v8c-0.99-0.33-1.98-0.66-3-1-0.92-5.46-1.16-10.7-1.12-16.2 0.00193-0.832 0.00387-1.66 0.00586-2.52 0.0428-6.11 0.355-12.2 1.12-18.2z" fill="#5F91D9"/>
<path transform="translate(646,152)" d="m0 0c4.63-0.0495 9.25-0.0858 13.9-0.11 1.57-0.01 3.15-0.0237 4.72-0.041 2.26-0.0243 4.53-0.0356 6.79-0.0444 0.701-0.0103 1.4-0.0206 2.12-0.0313 3.67-8.4e-4 6.37 0.205 9.48 2.23-3.63 1.21-6.95 1.12-10.7 1.1-0.75-0.00141-1.5-0.00283-2.27-0.00429-2.39-0.00559-4.79-0.0181-7.18-0.0309-1.62-0.00502-3.25-0.00958-4.87-0.0137-3.98-0.011-7.96-0.0283-11.9-0.0488v-3z" fill="#F6E6D7"/>
<path transform="translate(1305,71)" d="m0 0h3c0.133 0.915 0.266 1.83 0.402 2.77 0.177 1.19 0.353 2.38 0.535 3.6 0.174 1.18 0.348 2.37 0.527 3.59 0.37 2.95 0.37 2.95 1.54 5.04h3c0.18 10.6 0.18 10.6-2 15-2.02-5.05-3.53-9.88-4.57-15.2-0.268-1.8-0.268-1.8-1.43-2.79-0.234-2.02-0.413-4.04-0.562-6.06-0.0838-1.1-0.168-2.21-0.254-3.35-0.0909-1.28-0.0909-1.28-0.184-2.59z" fill="#5087D6"/>
<path transform="translate(561,207)" d="m0 0h2v17l2-4c0.99-0.33 1.98-0.66 3-1v2l1 1c-0.287 2.01-0.619 4.01-1 6l-3-2-2 3h-3c-1.04-3.42-1.13-6.56-1.12-10.1-0.00387-1.58-0.00387-1.58-0.00781-3.2 0.133-2.68 0.133-2.68 1.13-4.68h2l-1-4z" fill="#4981D0"/>
<path transform="translate(1305,37)" d="m0 0h1v5c0.99 0.33 1.98 0.66 3 1l1 16c-0.99 0.33-1.98 0.66-3 1-0.733 2.02-0.733 2.02-1 4h-2l1-27z" fill="#5289D9"/>
<path transform="translate(288 129)" d="m0 0c1.13 0.0029 1.13 0.0029 2.29 0.00586 5.58 0.0431 11 0.415 16.6 1.12l1 3-32-1v-2c3.97-1.31 7.99-1.15 12.1-1.12z" fill="#6998DB"/>
<path transform="translate(157,226)" d="m0 0 2 2c-0.0234 3.04-0.0234 3.04-0.375 6.62-0.166 1.78-0.166 1.78-0.336 3.6-0.0954 0.915-0.191 1.83-0.289 2.77h-1v-11h-21l1-3c15.5-1.3 15.5-1.3 20-1z" fill="#5A8ED8"/>
<path transform="translate(1360 289)" d="m0 0c0.822 0.00451 1.64 0.00902 2.49 0.0137 2 0.0116 4.01 0.0296 6.01 0.0488l-2 4c-3.79 0.0579-7.58 0.0936-11.4 0.125-1.62 0.0251-1.62 0.0251-3.27 0.0508-1.03 0.00645-2.06 0.0129-3.12 0.0195-1.43 0.0157-1.43 0.0157-2.89 0.0317-2.34-0.227-2.34-0.227-4.34-2.23 3.5-3.5 13.8-2.11 18.5-2.06z" fill="#13B96D"/>
<path transform="translate(1385,191)" d="m0 0 1.5 0.938c3.48 1.48 6.74 1.65 10.5 2.06 0.99 0.33 1.98 0.66 3 1v2h5v1h-7v2h8c-1.69 1.62-1.69 1.62-4 3-3.96-1.26-7.61-3.25-11.3-5.12-1.07-0.539-2.14-1.08-3.24-1.63-1.21-0.615-1.21-0.615-2.45-1.24v-4z" fill="#568BD8"/>
<path transform="translate(218,192)" d="m0 0 2 1v27c-0.99-0.33-1.98-0.66-3-1-0.0291-3.56-0.0468-7.12-0.0625-10.7-0.00838-1.01-0.0168-2.01-0.0254-3.05-0.00322-0.976-0.00645-1.95-0.00977-2.96-0.00524-0.895-0.0105-1.79-0.0159-2.71 0.115-2.62 0.531-5.03 1.11-7.59z" fill="#7EA4DF"/>
<path transform="translate(1482,142)" d="m0 0 2 1c2.39 11 2.55 27 0 38l-2 2v-16h2c-0.142-1.42-0.289-2.83-0.438-4.25-0.0812-0.789-0.162-1.58-0.246-2.39-0.254-2.3-0.254-2.3-0.848-4.27-0.629-2.81-0.563-5.47-0.531-8.34 0.0135-1.62 0.0135-1.62 0.0273-3.27 0.0116-0.82 0.0232-1.64 0.0352-2.48z" fill="#578CD7"/>
<path transform="translate(498,181)" d="m0 0c1.14 3.18 0.78 5.59 0.274 8.87-0.536 4.17-0.652 8.37-0.836 12.6-0.0432 0.922-0.0864 1.84-0.131 2.79-0.105 2.26-0.207 4.51-0.307 6.77h-3c-0.0818-2.98-0.141-5.96-0.188-8.94-0.0251-0.831-0.0503-1.66-0.0762-2.52-0.0709-6.07 1.06-10.9 3.26-16.5l1-3z" fill="#6495DA"/>
<path transform="translate(1445,216)" d="m0 0v3c0.887-0.206 1.77-0.412 2.69-0.625 3.54-0.401 5.18 0.0582 8.31 1.62v2c0.99 0.33 1.98 0.66 3 1-3.16 1.58-5.58 0.661-9 0-1.96-0.659-3.88-1.4-5.8-2.17-3.99-1.51-8.1-2.65-12.2-3.83v-1c1.6-0.196 3.21-0.381 4.81-0.562 0.893-0.104 1.79-0.209 2.71-0.316 2.48-0.121 2.48-0.121 5.48 0.879z" fill="#568BD6"/>
<path transform="translate(313,159)" d="m0 0c3.24 1.62 3.72 3.63 5 7 0.357 3.8 0.283 7.56 0.188 11.4-0.0135 1.02-0.0271 2.04-0.041 3.1-0.0352 2.51-0.0844 5.02-0.146 7.53l-2 1c-0.609-4.72-1.04-9.18-0.875-13.9 0.0846-5.39-1.32-10-3.12-15.1l1-1z" fill="#5F91DA"/>
<path transform="translate(337,150)" d="m0 0c2.96 1.48 3.08 3.34 4.12 6.44 2.55 8.48 2.23 16.8 1.88 25.6-2.26-3.59-2.21-6.57-2.12-10.8 0.018-1.17 0.0361-2.34 0.0547-3.55 0.0232-0.892 0.0464-1.78 0.0703-2.7h-2c0.0619-0.722 0.124-1.44 0.188-2.19 0.0288-2.9 0.0288-2.9-1.75-5.31-1.44-2.5-1.44-2.5-1.12-5.31l0.688-2.19z" fill="#6193DA"/>
<path transform="translate(1224,107)" d="m0 0c1.5 1.19 1.5 1.19 3 3 0.188 2.69 0.188 2.69 0 5-0.99-0.33-1.98-0.66-3-1-0.186 1.92-0.186 1.92-0.375 3.88-0.375 3.88-0.375 3.88-2.62 6.12-2-3-2-3-1.75-6.38 0.889-4.3 1.62-7.49 4.75-10.6z" fill="#01B662"/>
<path transform="translate(1384,224)" d="m0 0h2c4.16 11.8 5.17 23.6 6 36-2.55-2.55-2.34-3.78-2.56-7.31-0.189-2.83-0.403-5.52-0.965-8.29-0.473-2.39-0.473-2.39-0.473-6.39h-2l-2-14z" fill="#00B662"/>
<path transform="translate(74,212)" d="m0 0 1 4h2c2.23 2.23 2.37 2.92 2.75 5.94 0.098 0.69 0.196 1.38 0.297 2.09-0.0469 1.97-0.0469 1.97-2.05 4.97h-4v-17z" fill="#4982D1"/>
<path transform="translate(1345,146)" d="m0 0c0.99 0.33 1.98 0.66 3 1l0.375 2.38c0.416 2.77 0.416 2.77 2.62 4.62-0.375 3.62-0.375 3.62-1 7l-1-2h-2c-1.29-1.53-1.29-1.53-2.62-3.5-0.446-0.65-0.892-1.3-1.35-1.97-0.507-0.758-0.507-0.758-1.02-1.53l2-1v-4l1-1z" fill="#518AD2"/>
<path transform="translate(1439,76)" d="m0 0 2 1v1l4 2c-1.27 3.91-2.51 5.79-6 8v-2h-2v-3h-2c0-3 0-3 2-5.19l2-1.81z" fill="#4A83D2"/>
<path transform="translate(1119,228)" d="m0 0c2.92-0.054 5.83-0.0937 8.75-0.125 0.825-0.0168 1.65-0.0335 2.5-0.0508 0.799-0.00645 1.6-0.0129 2.42-0.0195 0.733-0.0105 1.47-0.0209 2.22-0.0317 2.41 0.259 4.02 1.03 6.11 2.23v1h-21l-1-3z" fill="#F18A40"/>
<path transform="translate(83,156)" d="m0 0 1 3h-2l-1 9-7 2c0.982-6.33 2.45-9.06 7.54-13 0.723-0.51 0.723-0.51 1.46-1.03zm-10 14 2 1v2h-2v-3z" fill="#5389D6"/>
<path transform="translate(1408,194)" d="m0 0c1.11 2.07 1.97 3.89 2.5 6.19l0.5 1.81 2 1c-1 1-1 1-4.31 1.19-4.8-0.244-6.77-1.57-10.7-4.19v-2c7.88-1 7.88-1 9-1l1-3z" fill="#4982D1"/>
<path transform="translate(177,198)" d="m0 0c1.51 3.01 0.571 5.65 0.0586 8.91-0.0193 0.691-0.0387 1.38-0.0586 2.09l2 2c-0.639 0.103-1.28 0.206-1.94 0.312l-2.06 0.688-1 3-1-7h-2v-5l1 2h2c-0.0619-0.784-0.124-1.57-0.188-2.38l0.188-2.62 3-2z" fill="#497FCD"/>
<path transform="translate(1365,111)" d="m0 0-0.562 1.75c-0.596 2.22-0.596 2.22 0.0625 4.25 0.587 2.35 0.231 3.73-0.5 6-3.35-1.39-5.11-2.89-7-6v-3c2.91-2.8 3.79-3 8-3z" fill="#497FCD"/>
<path transform="translate(290,241)" d="m0 0c1.62 2.57 2.04 3.68 1.62 6.75l-0.625 2.25h-8v-5l7-4z" fill="#4981D0"/>
<path transform="translate(1435,209)" d="m0 0h2v2h2v2c0.99 0.33 1.98 0.66 3 1h-2v2c-1.75 0.0543-3.5 0.0929-5.25 0.125-0.975 0.0232-1.95 0.0464-2.95 0.0703-2.82-0.197-4.41-0.75-6.8-2.2 2.89-0.826 4.89-1 8-1v-2l2-2z" fill="#4D85D3"/>
<path transform="translate(185,119)" d="m0 0h1c0.0542 2.56 0.0938 5.12 0.125 7.69 0.0168 0.721 0.0335 1.44 0.0508 2.19 0.0381 4.18-0.297 7.38-2.18 11.1h-2c-0.0971-6.11 0.23-11.9 1-18h2v-3z" fill="#578BD5"/>
<path transform="translate(596,114)" d="m0 0c-0.534 7.35-1.13 14.7-2 22h-2c-0.0871-3.1-0.14-6.21-0.188-9.31-0.0251-0.881-0.0503-1.76-0.0762-2.67-0.00967-0.848-0.0193-1.7-0.0293-2.57-0.0157-0.78-0.0314-1.56-0.0476-2.36 0.376-2.3 1.61-5.08 4.34-5.08z" fill="#588DD7"/>
<path transform="translate(1382,131)" d="m0 0c3 3.75 3 3.75 3 6l2 1-1 5-5-3v3l-1 3-5-2 2-4h2v-2l3-2-1-2 1-3z" fill="#4982D1"/>
<path transform="translate(1229,95)" d="m0 0c2.97 0.33 5.94 0.66 9 1l1 3c-2.97-0.495-2.97-0.495-6-1v2c-1.38 1.62-1.38 1.62-3 3h-2v2h-2c-0.366-4.27 0.592-6.49 3-10z" fill="#0AB768"/>
<path transform="translate(427,243)" d="m0 0 2 1v2c2.97 0.33 5.94 0.66 9 1-0.99 0.33-1.98 0.66-3 1v2h-19c3-3 3-3 5.04-3.07 2.98 0.537 2.98 0.537 5.96 1.07v-5z" fill="#4A82D1"/>
<path transform="translate(421,228)" d="m0 0v2h-29l-1-2c1.42 0.0174 1.42 0.0174 2.86 0.0352 7.32 0.0514 14.5-0.108 21.8-0.914 2.39-0.121 2.39-0.121 5.39 0.879z" fill="#D0E0F2"/>
<path transform="translate(1304,122)" d="m0 0c1.61 0.88 3.21 1.78 4.81 2.69 0.893 0.499 1.79 0.998 2.71 1.51 2.73 1.99 3.95 3.82 5.48 6.8-4.86-1.08-9.3-2.57-13-6-0.812-2.12-0.812-2.12-1-4l1-1z" fill="#04B664"/>
<path transform="translate(90,190)" d="m0 0h1c0.211 7.04 0.0797 13.2-2 20h-1c-0.0606-0.675-0.121-1.35-0.184-2.05-0.0838-0.892-0.168-1.78-0.254-2.7-0.0812-0.882-0.162-1.76-0.246-2.67-0.279-2.27-0.704-4.38-1.32-6.58l2-1c0.722-1.64 1.39-3.31 2-5z" fill="#568CDA"/>
<path transform="translate(202,183)" d="m0 0c1.04 3.13 0.971 4.29 0.441 7.45-0.139 0.848-0.277 1.7-0.42 2.57-0.151 0.881-0.303 1.76-0.459 2.67-0.148 0.893-0.295 1.79-0.447 2.71-0.365 2.2-0.737 4.41-1.12 6.61l-2-1c-0.401-8.08 0.363-13.7 4-21z" fill="#6595DB"/>
<path transform="translate(1378,91)" d="m0 0 1 2 8-2c0 3.52-0.824 4.37-3 7l1 2h-3l-1-4c-0.99 0.33-1.98 0.66-3 1l-3-3h2l1-3z" fill="#4981D0"/>
<path transform="translate(1290,267)" d="m0 0 1 3c0.99 0.33 1.98 0.66 3 1l-0.938 2.25c-0.872 2.26-1.54 4.4-2.06 6.75l-7-4 4-2-0.125-2.38c0.125-2.62 0.125-2.62 2.12-4.62z" fill="#01B662"/>
<path transform="translate(585 79.8)" d="m0 0c0.681-0.0122 1.36-0.0245 2.06-0.0371 3.73-0.0109 5.32 0.105 8.5 2.22-3.01 0.934-3.87 1.04-7 0v2h-3v-2c-0.99 0.33-1.98 0.66-3 1-0.99-0.33-1.98-0.66-3-1l-1 2h-3v-3c3.02-1.51 6.13-1.18 9.44-1.19z" fill="#538AD8"/>
<path transform="translate(355,160)" d="m0 0 2 4c2.33-0.959 2.33-0.959 4-4 0.99 2.64 1.98 5.28 3 8l-4 2-1-3-2 7-0.312-1.94-0.688-2.06c-0.99-0.33-1.98-0.66-3-1h2v-9z" fill="#497FCD"/>
<path transform="translate(234,154)" d="m0 0 2 1c-0.557 3.34-1.35 6.03-3 9h-2v2h-2v-3l-2-1 3-6 1 2h2l1-4z" fill="#4982D1"/>
<path transform="translate(347,215)" d="m0 0h2c0.133 1.02 0.266 2.05 0.402 3.11 0.178 1.36 0.357 2.72 0.535 4.08 0.087 0.674 0.174 1.35 0.264 2.04 0.477 3.62 1.03 7.2 1.8 10.8l-4-1c-1.27-3.87-1.11-7.73-1.06-11.8 0.00451-0.697 0.00902-1.39 0.0137-2.11 0.0117-1.71 0.0297-3.42 0.0488-5.14z" fill="#6092DA"/>
<path transform="translate(458,133)" d="m0 0h12l-1 7h-3l1-4c-3.28 0.752-3.28 0.752-5 4-1.12-3.75-1.12-3.75 0-6l-5 3 1-4z" fill="#497FCD"/>
<path transform="translate(1254,101)" d="m0 0c6.49 1.68 12.8 3.53 19 6v2c-0.695-0.143-1.39-0.286-2.11-0.434-3.06-0.599-6.13-1.12-9.21-1.63-1.6-0.265-1.6-0.265-3.24-0.535-0.808-0.133-1.62-0.266-2.45-0.402v-2l-2-1v-2z" fill="#06B665"/>
<path transform="translate(602,251)" d="m0 0h15l1 3h-17l1-3z" fill="#F4D9C1"/>
<path transform="translate(76,174)" d="m0 0 2 1c-0.99 4.62-1.98 9.24-3 14l-1-2h-2c-0.812-2.56-0.812-2.56-1-6 1.38-2.58 3.1-4.78 5-7z" fill="#4982D1"/>
<path transform="translate(101,159)" d="m0 0 5 1c-2.75 4.88-2.75 4.88-5 6-1.13 2.02-1.13 2.02-2 4l-4-1h2l-1-4c0.99-0.33 1.98-0.66 3-1 1.22-2.5 1.22-2.5 2-5z" fill="#4D84D3"/>
<path transform="translate(145,152)" d="m0 0h17v2l2 1h-17v-2l-2-1z" fill="#D5E3F3"/>
<path transform="translate(251,149)" d="m0 0c2.44 0.375 2.44 0.375 5 1l1 2 2 2-1 3h-9l2-8z" fill="#5289D9"/>
<path transform="translate(1230,223)" d="m0 0h3v4h2l1 4h2l1 5h2v3c-0.99-0.33-1.98-0.66-3-1-1.19-2.56-1.19-2.56-2-5h-2c-2.32-3.25-3.44-6.06-4-10z" fill="#07B665"/>
<path transform="translate(328,211)" d="m0 0c1.94 0.312 1.94 0.312 4 1l1 3-2 3v4c-1.94-0.688-1.94-0.688-4-2-1.09-2.95-1.25-4.38-0.0625-7.31 0.351-0.557 0.701-1.11 1.06-1.69z" fill="#4982D1"/>
<path transform="translate(1329,134)" d="m0 0 1 2h3v3h5v3h-2l1 4-4-2v-2h-2c-1.69-2.31-1.69-2.31-3-5l1-3z" fill="#6295D9"/>
<path transform="translate(376,185)" d="m0 0h1c-0.779 13.6-0.779 13.6-3 20h-1c-0.201-12.4-0.201-12.4 1-18l2-2z" fill="#5E91DA"/>
<path transform="translate(1316,108)" d="m0 0 1 3c0.99 0.33 1.98 0.66 3 1l1 8h3v5c-3-1-3-1-4.39-3.07-4.31-8.65-4.31-8.65-3.61-13.9z" fill="#6696DB"/>
<path transform="translate(107,246)" d="m0 0 1 3c8.69 0.796 17.3 1.13 26 1v1c-20.2 2.01-20.2 2.01-29 0l-1-3 3-2z" fill="#5B8FDA"/>
<path transform="translate(373,212)" d="m0 0h1l0.0781 1.83c0.325 5.22 0.325 5.22 2.86 9.67 1.98 1.53 1.98 1.53 4.06 2.5l-1 3h-6v-3l-2-1 1-1c0.0724-2.02 0.0838-4.04 0.0625-6.06-0.00902-1.1-0.018-2.21-0.0273-3.35-0.0116-0.855-0.0232-1.71-0.0352-2.59z" fill="#5D90DA"/>
<path transform="translate(176,171)" d="m0 0h2c-0.114 2.58-0.241 5.17-0.375 7.75-0.0309 0.73-0.0619 1.46-0.0938 2.21-0.206 3.78-0.446 6.82-2.53 10-2.17-3.26-2.23-3.46-1.54-7.01 0.142-0.757 0.284-1.51 0.43-2.29 0.16-0.786 0.32-1.57 0.484-2.38 0.152-0.797 0.304-1.59 0.461-2.42 0.377-1.97 0.769-3.93 1.16-5.9z" fill="#5387D2"/>
<path transform="translate(210,127)" d="m0 0h1c-1.44 23.4-1.44 23.4-5 27-0.196-6.13-0.218-11.2 2-17 0.743-3.32 1.38-6.66 2-10z" fill="#588DD9"/>
<path transform="translate(353,170)" d="m0 0h3c0.369 10.6 0.369 10.6-2 15h-2l1-15z" fill="#578BD7"/>
<path transform="translate(456,222)" d="m0 0h1c-0.115 2.04-0.243 4.08-0.375 6.12-0.0696 1.14-0.139 2.27-0.211 3.45-0.638 5.29-1.96 9.35-5.41 13.4l-1-4h2c0.715-3.16 1.14-6.28 1.44-9.5 0.359-3.47 1.03-6.33 2.56-9.5z" fill="#6393DA"/>
<path transform="translate(1402,203)" d="m0 0h11v3h2l1 4c-9.78-3-9.78-3-14-6v-1z" fill="#598DD8"/>
<path transform="translate(204,151)" d="m0 0h2c0.562 1.94 0.562 1.94 1 4l-1 1c-0.232 1.51-0.412 3.04-0.562 4.56-0.0838 0.826-0.168 1.65-0.254 2.5-0.0606 0.638-0.121 1.28-0.184 1.93h-4c1-3 1-3 2-4h-1c-0.25-6.62-0.25-6.62 2-10z" fill="#4982D0"/>
<path transform="translate(1476,141)" d="m0 0h6l1 14h-3v-2h-2l0.5-2.75c0.601-3.36 0.601-3.36 0.5-7.25h-3v-2z" fill="#4982D1"/>
<path transform="translate(170,243)" d="m0 0h3l1 4c3.46-0.495 3.46-0.495 7-1v3c-2.41 1.2-3.95 1.1-6.62 1.06-1.23-0.0135-1.23-0.0135-2.48-0.0273-0.94-0.0174-0.94-0.0174-1.9-0.0352v-7z" fill="#5289D9"/>
<path transform="translate(297,149)" d="m0 0c2.31 0.33 4.62 0.66 7 1v3l5 1v3l-3-2c-1.88-0.441-3.78-0.811-5.69-1.12-0.994-0.168-1.99-0.335-3.01-0.508-0.759-0.121-1.52-0.242-2.3-0.367l2-4z" fill="#578CDA"/>
<path transform="translate(136,228)" d="m0 0v2h-23v-1c3.08-0.366 6.17-0.716 9.25-1.06 0.873-0.104 1.75-0.208 2.64-0.314 0.844-0.0935 1.69-0.187 2.56-0.283 0.775-0.089 1.55-0.178 2.35-0.27 2.27-0.0723 4.04 0.273 6.2 0.93z" fill="#DAE6F4"/>
<path transform="translate(244,194)" d="m0 0h1v17h-2c-1.27-5.07-1.98-10.6 0-15.5l1-1.5z" fill="#93B4E4"/>
<path transform="translate(467,148)" d="m0 0h1c0.0876 5.56-0.186 10.9-0.875 16.4-0.0786 0.719-0.157 1.44-0.238 2.18-0.222 1.81-0.546 3.6-0.887 5.38l-2 1v-13h1l2-12z" fill="#598DD8"/>
<path transform="translate(359,134)" d="m0 0h2c0.915 5.56 1.32 9.68-1 15h-2c-1.2-3.53-0.795-6.13-0.0625-9.75 0.195-0.985 0.389-1.97 0.59-2.98 0.156-0.748 0.312-1.5 0.473-2.27z" fill="#558AD5"/>
<path transform="translate(1230,106)" d="m0 0 1.75 1.06c2.61 1.09 3.64 0.868 6.25-0.0625-0.639 0.742-1.28 1.48-1.94 2.25-1.85 2.46-2.62 3.78-3.06 6.75l-1-2-4 1v-3h2l-1-3 1-3z" fill="#00B561"/>
<path transform="translate(1432,58)" d="m0 0c4.28 0.476 6.13 2.99 9 6l2.81 2.19 2.19 1.81v2c-1.94-0.312-1.94-0.312-4-1l-1-3c-2.29-1.37-4.46-2.15-7-3-1.19-2.56-1.19-2.56-2-5z" fill="#5A8EDA"/>
<path transform="translate(1305,37)" d="m0 0h1c0.196 4.12 0.381 8.25 0.562 12.4 0.0561 1.18 0.112 2.35 0.17 3.56 0.0483 1.12 0.0967 2.24 0.146 3.4 0.0471 1.04 0.0943 2.07 0.143 3.14-0.0217 2.52-0.0217 2.52-1.02 4.52h-2l1-27z" fill="#5F91DA"/>
<path transform="translate(170,208)" d="m0 0h3c0.915 4.66 1.37 7.77-1 12l-2 1v-13z" fill="#4F86D3"/>
<path transform="translate(1305,71)" d="m0 0h3c1 3.01 1.1 5.04 1.06 8.19-0.00902 0.901-0.018 1.8-0.0273 2.73-0.0116 0.687-0.0232 1.37-0.0352 2.08-0.99-0.33-1.98-0.66-3-1l-1-12z" fill="#5F91DA"/>
<path transform="translate(437,243)" d="m0 0h2l1 2c2.32 0.407 4.66 0.744 7 1-7.71 4-7.71 4-12 4v-4l2-1v-2z" fill="#578CD9"/>
<path transform="translate(556,213)" d="m0 0h2l-1 14h-3c0.141-1.77 0.288-3.54 0.438-5.31 0.0812-0.986 0.162-1.97 0.246-2.99 0.316-2.7 0.316-2.7 1.32-5.7z" fill="#5A8DD6"/>
<path transform="translate(458,198)" d="m0 0h3c0.125 2.88 0.125 2.88 0 6l-2 2c-0.46 2.2-0.46 2.2-0.625 4.62-0.0748 0.817-0.15 1.63-0.227 2.48-0.049 0.626-0.098 1.25-0.148 1.9-2.43-3.64-2.16-5.71-2-10h2l-0.562-1.81c-0.438-2.19-0.438-2.19 0.562-5.19z" fill="#5C90D9"/>
<path transform="translate(673 152)" d="m0 0c1.06-0.0142 2.12-0.0284 3.21-0.043 2.9 0.224 4.53 0.729 6.98 2.23-2.91 0.97-4.9 1.16-7.94 1.19-0.855 0.0142-1.71 0.0284-2.59 0.043-2.61-0.243-4.23-0.913-6.47-2.23 1.79-1.79 4.4-1.17 6.81-1.19z" fill="#F6E4D2"/>
<path transform="translate(642,132)" d="m0 0v2l-15 1v-2c1.56-0.366 3.12-0.718 4.69-1.06 0.87-0.197 1.74-0.394 2.64-0.598 2.84-0.36 4.92-0.0489 7.68 0.66z" fill="#F18D47"/>
<path transform="translate(422,227)" d="m0 0h3v2c1.98-0.66 3.96-1.32 6-2l-1 3c-2.06 0.688-2.06 0.688-4 1v2l-4-1c-0.562-1.94-0.562-1.94-1-4l1-1z" fill="#6D9ADD"/>
<path transform="translate(1058,131)" d="m0 0v2c0.99 0.33 1.98 0.66 3 1-2.04 0.0273-4.08 0.0465-6.12 0.0625-1.14 0.0116-2.27 0.0232-3.45 0.0352-3.24-0.0923-6.25-0.484-9.43-1.1v-1c5.41-0.772 10.5-1.1 16-1z" fill="#F18B43"/>
<path transform="translate(854,206)" d="m0 0h2v14h-2c-1.33-9.41-1.33-9.41 0-14z" fill="#F18E47"/>
<path transform="translate(1435,202)" d="m0 0 2 1v1l2-1 2 4-2.25 0.375c-2.55 0.58-4.48 1.36-6.75 2.62l-1-3c1.94-2.69 1.94-2.69 4-5z" fill="#4981D0"/>
<path transform="translate(337,150)" d="m0 0c2.57 1.28 2.66 2.23 3.62 4.88 0.26 0.699 0.521 1.4 0.789 2.12 0.586 2.01 0.586 2.01 0.586 5.01-3-1-3-1-4.75-3.75-1.32-3.43-1.36-4.82-0.25-8.25z" fill="#6897DB"/>
<path transform="translate(1328,129)" d="m0 0 4 2 1-2c1.04 3.38 1.08 6.48 1 10l-1-3-5-1v-6z" fill="#5289D9"/>
<path transform="translate(285,227)" d="m0 0h11c-0.99 0.33-1.98 0.66-3 1v2c-2.31 1.12-2.31 1.12-5 2l-3-2v-3z" fill="#6898DC"/>
<path transform="translate(1319,132)" d="m0 0c2 0 2 0 3.88 1.75 0.701 0.742 1.4 1.48 2.12 2.25l4 4h-5l-1-2-2 2c-2-5.75-2-5.75-2-8z" fill="#04B664"/>
<path transform="translate(538,130)" d="m0 0v3h-14v-2c4.76-0.953 9.17-1.08 14-1z" fill="#A0BEE7"/>
<path transform="translate(1297 118)" d="m0 0c2.81 1.15 4.18 1.95 6.06 4.25l-2 3c-0.392-0.474-0.784-0.949-1.19-1.44-2.22-1.91-3.95-2.18-6.81-2.56l-1-3c2-1 2-1 4.94-0.25z" fill="#02B663"/>
<path transform="translate(77,171)" d="m0 0h2c-1 3-1 3-4 5l-1 2.06c-1 1.94-1 1.94-4 2.94l1-7c1.98-0.33 3.96-0.66 6-1v-2z" fill="#5188D6"/>
<path transform="translate(1280,123)" d="m0 0 2 3c-1 3-1 3-3 4-2.67 0.134-5.32 0.0432-8 0l2-4 2 1c1.84 0 3.4-1.17 5-2v-2z" fill="#00B561"/>
<path transform="translate(67,207)" d="m0 0 2 3 3-2c-0.453 4.87-1.71 7.39-5 11v-12z" fill="#4B83D2"/>
<path transform="translate(1377,133)" d="m0 0 2 1 1 3-4 2v-2c-2.34 2.26-4.19 4.28-6 7l-1-5 2.31-1.31c2.27-1.42 3.91-2.72 5.69-4.69z" fill="#4981D0"/>
<path transform="translate(1410,44)" d="m0 0 2 3-1 3c0.389 2.14 0.389 2.14 1 4-0.99-0.33-1.98-0.66-3-1-0.688-2.06-0.688-2.06-1-4-0.99 0.33-1.98 0.66-3 1v-4c0.99-0.33 1.98-0.66 3-1l2 1v-2z" fill="#497FCD"/>
<path transform="translate(1354,29)" d="m0 0h8v2h2v2h-9l-1-4z" fill="#4982D1"/>
<path transform="translate(198,206)" d="m0 0h3c-0.115 1.75-0.242 3.5-0.375 5.25-0.0696 0.975-0.139 1.95-0.211 2.95-0.414 2.8-0.414 2.8-2.41 6.8v-15z" fill="#E6EFF7"/>
<path transform="translate(317,173)" d="m0 0h1v15l-2 1-1-9h2v-7z" fill="#85AAE1"/>
<path transform="translate(326,226)" d="m0 0h2c-0.812 2.44-0.812 2.44-2 5-0.99 0.33-1.98 0.66-3 1v-2h-5v-3l3.44 0.0625c3.38 0.353 3.38 0.353 4.56-1.06z" fill="#548BD9"/>
<path transform="translate(440,162)" d="m0 0h2c0.193 4.82-0.243 8.5-2 13h-1c-0.0271-1.6-0.0464-3.21-0.0625-4.81-0.0116-0.893-0.0232-1.79-0.0352-2.71 0.0977-2.48 0.0977-2.48 1.1-5.48z" fill="#6594D8"/>
<path transform="translate(1432,154)" d="m0 0c1.68 0.286 3.34 0.618 5 1v2l1 2h-3l-1 2-3-2c0-4 0-4 1-5z" fill="#4981D0"/>
<path transform="translate(1427,70)" d="m0 0h3l-1 4c-3.31 1.12-3.31 1.12-7 2l-3-2 4-2v2h2v-2h2v-2z" fill="#4B84D3"/>
<path transform="translate(327,139)" d="m0 0h2l2 3 2 0.812c2.94 1.75 3.16 3.99 4 7.19l-3-2v-2h-4c-3-4.07-3-4.07-3-7z" fill="#6D9ADC"/>
<path transform="translate(1293,127)" d="m0 0 1 3c-1.25 1.5-1.25 1.5-3 3h-4c-1.34 0.298-2.68 0.622-4 1v-2c1.75-1.69 1.75-1.69 4-3 2.25 0.312 2.25 0.312 4 1l1-2 1-1z" fill="#00B360"/>
<path transform="translate(210,128)" d="m0 0c-0.964 9.41-0.964 9.41-2 14h-1c-0.197-1.42-0.382-2.83-0.562-4.25-0.104-0.789-0.209-1.58-0.316-2.39-0.123-2.4 0.0473-4.11 0.879-6.36 2-1 2-1 3-1z" fill="#4D85D4"/>
<path transform="translate(421,231)" d="m0 0-1 4h-5l1-4c-0.99-0.33-1.98-0.66-3-1 3.4-1.22 4.93-0.862 8 1z" fill="#4F87D6"/>
<path transform="translate(1384,224)" d="m0 0h2c0.506 1.44 1 2.87 1.5 4.31 0.278 0.801 0.557 1.6 0.844 2.43 0.656 2.26 0.656 2.26 0.656 5.26-1.95-0.68-1.95-0.68-4-2-0.609-2.38-0.609-2.38-0.75-5.12-0.0567-0.91-0.113-1.82-0.172-2.76-0.0258-0.699-0.0516-1.4-0.0781-2.12z" fill="#12B96C"/>
<path transform="translate(300 130)" d="m0 0c1.24 0.0174 1.24 0.0174 2.5 0.0352 0.826 0.00902 1.65 0.018 2.5 0.0273 0.638 0.0116 1.28 0.0232 1.93 0.0352l1 3-3.81 0.125c-0.708 0.0232-1.42 0.0464-2.14 0.0703-2.04-0.195-2.04-0.195-5.04-2.2 1-1 1-1 3.07-1.1z" fill="#6A99DC"/>
<path transform="translate(1313,94)" d="m0 0h1c2.29 8.43 2.29 8.43 2 13h-2c-2.43-8.43-2.43-8.43-1-13z" fill="#5D91DB"/>
<path transform="translate(1463,92)" d="m0 0c3.22 3.79 5.62 7.66 8 12l-2 1-1-3-2-1.81c-2.46-2.69-2.68-4.61-3-8.19z" fill="#578BD6"/>
<path transform="translate(489,242)" d="m0 0 2 2c2.32 0.719 4.65 1.39 7 2v2c-1.44-0.257-2.88-0.531-4.31-0.812-0.801-0.151-1.6-0.302-2.43-0.457-2.5-0.806-3.59-1.75-5.26-3.73 0.99-0.33 1.98-0.66 3-1z" fill="#588DDA"/>
<path transform="translate(980,219)" d="m0 0h2l-1 12h-2c-0.0271-1.44-0.0465-2.87-0.0625-4.31-0.0116-0.801-0.0232-1.6-0.0352-2.43 0.0977-2.26 0.0977-2.26 1.1-5.26z" fill="#F1883F"/>
<path transform="translate(764,134)" d="m0 0-1 2h-3v2l-8 2c1-3 1-3 3.75-4.69 3.1-1.25 4.97-1.6 8.25-1.31z" fill="#F18B44"/>
<path transform="translate(839 130)" d="m0 0c0.808 0.111 1.62 0.222 2.45 0.336 0.922 0.143 0.922 0.143 1.86 0.289l1 3c-4.29-0.66-8.58-1.32-13-2 3.35-2.24 3.91-2.17 7.69-1.62z" fill="#F1883F"/>
<path transform="translate(1278,109)" d="m0 0 8 3-1 4-1-2h-4v-2h-3l1-3z" fill="#03B663"/>
</svg>
