<svg width="24" height="24" viewBox="0 0 24 24" fill="none" xmlns="http://www.w3.org/2000/svg">
<path d="M17.7403 15.5587L18.2202 16.0394L17.8572 16.4032L17.2638 15.8102C17.1171 15.9031 16.9777 16.007 16.8467 16.1211L21.7779 21.0519C21.8933 20.9185 21.9972 20.7801 22.0888 20.6348L21.495 20.0418L21.8596 19.678L22.3403 20.1587C22.8934 18.8799 22.6504 17.3393 21.605 16.294C20.5597 15.2486 19.0191 15.006 17.7403 15.5587ZM18.2202 16.767L18.5844 16.4032L19.3116 17.1312L18.9485 17.4953L18.2202 16.767ZM19.3119 17.8587L19.6765 17.4957L20.4033 18.2229L20.0403 18.5863L19.3119 17.8587ZM21.132 19.678L20.4037 18.9505L20.7678 18.5867L21.495 19.3142L21.132 19.678ZM16.1721 16.9019L16.7658 17.4957L16.4017 17.8587L15.921 17.378C15.3678 18.6572 15.6105 20.1982 16.6558 21.2432C17.7012 22.2882 19.2418 22.5308 20.521 21.9776L20.0407 21.4973L20.4037 21.1332L20.9975 21.7266C21.1424 21.6353 21.2811 21.5311 21.4145 21.4157L16.4826 16.4845C16.3676 16.6179 16.2641 16.7567 16.1721 16.9019ZM20.0403 20.7698L19.6765 21.1332L18.9489 20.406L19.3119 20.0422L20.0403 20.7698ZM18.9489 19.678L18.5848 20.0418L17.8576 19.3142L18.2206 18.9505L18.9489 19.678ZM17.8572 18.5863L17.4926 18.9501L16.7658 18.2229L17.1289 17.8587L17.8572 18.5863ZM18.561 8.9493C18.561 8.75533 18.4839 8.56903 18.3459 8.4318L17.554 7.63907C17.5501 7.60648 17.5436 7.57467 17.5432 7.54132C17.5406 7.40595 17.5653 7.27145 17.616 7.14589C17.6667 7.02033 17.7422 6.90631 17.838 6.81068L23 1.64795L22.9582 1.49423C22.8659 1.14592 22.6833 0.828157 22.4288 0.573083C22.1739 0.318839 21.8566 0.136022 21.5088 0.0429333L21.3543 0L16.1908 5.16388C15.9716 5.38315 15.6565 5.47093 15.3521 5.4372L14.5697 4.6552C14.5018 4.5872 14.4212 4.53325 14.3324 4.49644C14.2437 4.45963 14.1485 4.44069 14.0524 4.44069C13.9563 4.44069 13.8612 4.45963 13.7724 4.49644C13.6836 4.53325 13.603 4.5872 13.5351 4.6552L0.318536 17.8718C0.0295021 18.1608 -0.210081 18.7151 0.289019 19.7148C0.561185 20.2592 1.0185 20.8664 1.57702 21.4249C1.94655 21.794 3.23609 23 4.31594 23C4.7261 23 4.98485 22.8275 5.12975 22.6826L18.3459 9.46642C18.4839 9.32918 18.561 9.14327 18.561 8.9493ZM16.5792 5.55182L21.0864 1.04458C21.2738 1.12815 21.4509 1.24238 21.6054 1.39648C21.7595 1.55058 21.873 1.72768 21.9566 1.91513L17.4497 6.42237C17.2555 6.61657 17.1166 6.85916 17.0476 7.12502L17.0349 7.12003L15.8807 5.96543L15.8757 5.95393C16.1419 5.88499 16.3847 5.74616 16.5792 5.55182ZM0.965986 18.2593L14.0522 5.1727L15.8025 6.92223L4.47349 18.2516C4.21244 18.5127 3.63744 18.7776 3.26829 18.7507C2.73354 18.7109 0.965986 18.2593 0.965986 18.2593ZM4.74259 22.0355C4.74259 22.0355 4.29102 20.2684 4.25154 19.7321C4.22432 19.3641 4.48959 18.7883 4.75025 18.5276C7.58194 15.6944 16.0793 7.19823 16.0793 7.19823L17.8284 8.94853L4.74259 22.0355Z" fill="black"/>
</svg>
