<svg width="24" height="24" viewBox="0 0 24 24" fill="none" xmlns="http://www.w3.org/2000/svg">
<path d="M19.07 4.93001C17.184 3.10843 14.6579 2.10049 12.036 2.12327C9.414 2.14606 6.90588 3.19775 5.0518 5.05183C3.19772 6.90591 2.14603 9.41403 2.12324 12.036C2.10046 14.658 3.1084 17.184 4.92998 19.07C6.816 20.8916 9.34203 21.8995 11.964 21.8768C14.586 21.854 17.0941 20.8023 18.9482 18.9482C20.8023 17.0941 21.8539 14.586 21.8767 11.964C21.8995 9.34206 20.8916 6.81603 19.07 4.93001ZM6.33998 6.34001C7.46667 5.21286 8.90434 4.44791 10.4687 4.14324C12.033 3.83857 13.6526 4.00807 15.12 4.63001L14.83 4.93001L15.54 5.64001L16.06 5.11001C16.3499 5.28496 16.6303 5.47522 16.9 5.68001L5.67998 16.9C5.47519 16.6303 5.28492 16.3499 5.10998 16.06L5.63998 15.54L4.92998 14.83L4.63998 15.12C4.0168 13.6536 3.84568 12.0345 4.14855 10.4703C4.45143 8.90602 5.2145 7.46782 6.33998 6.34001ZM17.66 17.66C16.5333 18.7872 15.0956 19.5521 13.5313 19.8568C11.967 20.1615 10.3473 19.992 8.87998 19.37L9.16998 19.07L8.45998 18.36L7.93998 18.89C7.65006 18.7151 7.36966 18.5248 7.09998 18.32L18.32 7.10001C18.5248 7.36969 18.715 7.65009 18.89 7.94001L18.36 8.46001L19.07 9.17001L19.36 8.88001C19.9832 10.3464 20.1543 11.9655 19.8514 13.5297C19.5485 15.094 18.7855 16.5322 17.66 17.66ZM11.29 15.54L12 16.24L10.59 17.66L9.87998 17L11.29 15.54ZM14.12 12.71L14.83 13.41L13.41 14.83L12.71 14.12L14.12 12.71ZM17 9.88001L17.71 10.59L16.24 12L15.54 11.29L17 9.88001ZM12.71 8.46001L12 7.76001L13.41 6.34001L14.12 7.05001L12.71 8.46001ZM9.87998 11.29L9.16998 10.59L10.59 9.17001L11.29 9.88001L9.87998 11.29ZM7.04998 14.12L6.33998 13.41L7.75998 12L8.45998 12.71L7.04998 14.12Z" fill="black"/>
</svg>
