<svg width="24" height="24" viewBox="0 0 24 24" fill="none" xmlns="http://www.w3.org/2000/svg">
<path d="M6.343 4.93802C6.43598 5.03089 6.50973 5.14118 6.56006 5.26257C6.61038 5.38397 6.63629 5.5141 6.63629 5.64552C6.63629 5.77693 6.61038 5.90706 6.56006 6.02846C6.50973 6.14985 6.43598 6.26014 6.343 6.35302C4.84244 7.85383 3.99945 9.88922 3.99945 12.0115C3.99945 14.1338 4.84244 16.1692 6.343 17.67C6.43851 17.7623 6.51469 17.8726 6.5671 17.9946C6.61951 18.1166 6.6471 18.2478 6.64825 18.3806C6.6494 18.5134 6.6241 18.6451 6.57382 18.768C6.52354 18.8909 6.44929 19.0025 6.35539 19.0964C6.2615 19.1903 6.14985 19.2646 6.02695 19.3148C5.90406 19.3651 5.77238 19.3904 5.6396 19.3893C5.50682 19.3881 5.3756 19.3605 5.25359 19.3081C5.13159 19.2557 5.02125 19.1795 4.929 19.084C1.022 15.178 1.022 8.84402 4.929 4.93802C5.11653 4.75054 5.37084 4.64523 5.636 4.64523C5.90116 4.64523 6.15547 4.75054 6.343 4.93802ZM19.075 4.93802C22.981 8.84502 22.981 15.178 19.075 19.084C18.8875 19.2717 18.6331 19.3771 18.3679 19.3772C18.1026 19.3773 17.8481 19.272 17.6605 19.0845C17.4729 18.897 17.3674 18.6426 17.3673 18.3774C17.3672 18.1121 17.4725 17.8577 17.66 17.67C19.1606 16.1692 20.0035 14.1338 20.0035 12.0115C20.0035 9.88922 19.1606 7.85383 17.66 6.35302C17.4724 6.16537 17.3669 5.91088 17.3669 5.64552C17.3669 5.38015 17.4724 5.12566 17.66 4.93802C17.8476 4.75037 18.1021 4.64496 18.3675 4.64496C18.6329 4.64496 18.8874 4.75037 19.075 4.93802ZM9.31 7.81202C9.49747 7.99954 9.60279 8.25385 9.60279 8.51902C9.60279 8.78418 9.49747 9.03849 9.31 9.22602C8.94595 9.59003 8.65717 10.0222 8.46015 10.4978C8.26312 10.9734 8.16172 11.4832 8.16172 11.998C8.16172 12.5128 8.26312 13.0226 8.46015 13.4982C8.65717 13.9738 8.94595 14.406 9.31 14.77C9.40284 14.8629 9.47648 14.9732 9.5267 15.0946C9.57692 15.2159 9.60275 15.346 9.6027 15.4774C9.60266 15.6087 9.57674 15.7388 9.52643 15.8601C9.47612 15.9814 9.40241 16.0917 9.3095 16.1845C9.21659 16.2774 9.1063 16.351 8.98493 16.4012C8.86357 16.4514 8.73349 16.4773 8.60215 16.4772C8.4708 16.4772 8.34074 16.4513 8.21941 16.4009C8.09808 16.3506 7.98784 16.2769 7.895 16.184C6.78483 15.0738 6.16114 13.5681 6.16114 11.998C6.16114 10.428 6.78483 8.92222 7.895 7.81202C7.98787 7.71904 8.09816 7.64528 8.21956 7.59496C8.34096 7.54463 8.47108 7.51873 8.6025 7.51873C8.73392 7.51873 8.86404 7.54463 8.98544 7.59496C9.10684 7.64528 9.21713 7.71904 9.31 7.81202ZM16.268 7.81202C17.3782 8.92222 18.0019 10.428 18.0019 11.998C18.0019 13.5681 17.3782 15.0738 16.268 16.184C16.0794 16.3662 15.8268 16.467 15.5646 16.4647C15.3024 16.4624 15.0516 16.3572 14.8662 16.1718C14.6808 15.9864 14.5756 15.7356 14.5733 15.4734C14.571 15.2112 14.6718 14.9586 14.854 14.77C15.218 14.406 15.5068 13.9738 15.7039 13.4982C15.9009 13.0226 16.0023 12.5128 16.0023 11.998C16.0023 11.4832 15.9009 10.9734 15.7039 10.4978C15.5068 10.0222 15.218 9.59003 14.854 9.22602C14.6718 9.03741 14.571 8.78481 14.5733 8.52261C14.5756 8.26042 14.6808 8.0096 14.8662 7.8242C15.0516 7.63879 15.3024 7.53362 15.5646 7.53134C15.8268 7.52906 16.0794 7.62986 16.268 7.81202ZM12.082 10.582C12.279 10.582 12.474 10.6208 12.656 10.6962C12.838 10.7716 13.0034 10.8821 13.1427 11.0214C13.2819 11.1606 13.3924 11.326 13.4678 11.508C13.5432 11.69 13.582 11.885 13.582 12.082C13.582 12.279 13.5432 12.4741 13.4678 12.656C13.3924 12.838 13.2819 13.0034 13.1427 13.1427C13.0034 13.282 12.838 13.3925 12.656 13.4678C12.474 13.5432 12.279 13.582 12.082 13.582C11.6842 13.582 11.3026 13.424 11.0213 13.1427C10.74 12.8614 10.582 12.4798 10.582 12.082C10.582 11.6842 10.74 11.3027 11.0213 11.0214C11.3026 10.7401 11.6842 10.582 12.082 10.582Z" fill="black"/>
</svg>
