<svg width="17" height="17" viewBox="0 0 17 17" fill="none" xmlns="http://www.w3.org/2000/svg">
<path d="M11.7725 2.11617C11.6903 2.03378 11.5926 1.96842 11.485 1.92382C11.3774 1.87922 11.2621 1.85626 11.1457 1.85626C11.0292 1.85626 10.9139 1.87922 10.8063 1.92382C10.6987 1.96842 10.601 2.03378 10.5188 2.11617L4.63253 7.99759C4.56686 8.06306 4.51477 8.14084 4.47922 8.22646C4.44368 8.31208 4.42538 8.40386 4.42538 8.49655C4.42538 8.58925 4.44368 8.68103 4.47922 8.76665C4.51477 8.85227 4.56686 8.93004 4.63253 8.99552L10.5188 14.8769C10.8659 15.2237 11.4255 15.2237 11.7725 14.8769C12.1196 14.5301 12.1196 13.971 11.7725 13.6242L6.6442 8.49301L11.7796 3.36181C12.1196 3.02209 12.1196 2.45589 11.7725 2.11617Z" fill="#1E232C" stroke="#1E232C" stroke-width="0.2"/>
</svg>
