<svg width="24" height="24" viewBox="0 0 24 24" fill="none" xmlns="http://www.w3.org/2000/svg">
<g clip-path="url(#clip0_1513_4823)">
<path d="M12 21.75C12.1847 21.7494 12.3656 21.6978 12.5227 21.6007C12.6798 21.5036 12.8069 21.3649 12.89 21.2L15.95 15.08L19.95 15.08C20.7669 15.08 21.5503 14.7555 22.1279 14.1779C22.7055 13.6003 23.03 12.8169 23.03 12C23.03 11.1831 22.7055 10.3997 22.1279 9.82212C21.5503 9.2445 20.7669 8.92 19.95 8.92L15.95 8.92L12.89 2.8C12.8069 2.63509 12.6798 2.49641 12.5227 2.39933C12.3656 2.30225 12.1847 2.25056 12 2.25L8.67003 2.25C8.50712 2.24865 8.34635 2.28711 8.20169 2.36205C8.05704 2.43699 7.93289 2.54614 7.84003 2.68C7.74884 2.8131 7.6912 2.96629 7.67205 3.12649C7.65289 3.2867 7.67279 3.44916 7.73003 3.6L9.73003 8.92L6.00003 8.92L5.40003 7.1C5.33294 6.90138 5.20513 6.72887 5.03466 6.60685C4.86419 6.48482 4.65967 6.41946 4.45003 6.42L2.00003 6.42C1.86772 6.42055 1.73684 6.44735 1.61496 6.49885C1.49309 6.55034 1.38264 6.62551 1.29003 6.72C1.10529 6.90626 1.00113 7.15766 1.00003 7.42L1.00003 16.59C1.00003 16.8552 1.10538 17.1096 1.29292 17.2971C1.48046 17.4846 1.73481 17.59 2.00003 17.59L4.50003 17.59C4.70967 17.5905 4.91418 17.5252 5.08466 17.4032C5.25513 17.2811 5.38294 17.1086 5.45003 16.91L6.00003 15.08L9.72003 15.08L7.72003 20.4C7.66278 20.5509 7.64289 20.7133 7.66205 20.8735C7.6812 21.0337 7.73884 21.1869 7.83003 21.32C7.92288 21.4539 8.04704 21.563 8.19169 21.638C8.33635 21.7129 8.49712 21.7514 8.66003 21.75L12 21.75ZM12.1 14.44C12.159 14.2878 12.1798 14.1234 12.1606 13.9613C12.1414 13.7992 12.0829 13.6443 11.99 13.51C11.8981 13.3775 11.7756 13.2693 11.6328 13.1944C11.49 13.1195 11.3312 13.0803 11.17 13.08L5.33003 13.08C5.11915 13.0802 4.91372 13.147 4.7431 13.2709C4.57248 13.3948 4.4454 13.5695 4.38003 13.77L3.78003 15.58L3.00003 15.58L3.00003 8.41L3.78003 8.41L4.38003 10.22C4.4454 10.4205 4.57248 10.5952 4.7431 10.7191C4.91372 10.843 5.11915 10.9098 5.33003 10.91L11.17 10.91C11.3312 10.9097 11.49 10.8705 11.6328 10.7956C11.7756 10.7208 11.8981 10.6125 11.99 10.48C12.0829 10.3457 12.1414 10.1908 12.1606 10.0287C12.1798 9.86656 12.159 9.70222 12.1 9.55L10.1 4.24L11.38 4.24L14.44 10.35C14.5217 10.5168 14.6483 10.6575 14.8055 10.7564C14.9627 10.8553 15.1443 10.9085 15.33 10.91L19.92 10.91C20.2065 10.91 20.4812 11.0238 20.6837 11.2263C20.8862 11.4289 21 11.7036 21 11.99C21 12.2764 20.8862 12.5511 20.6837 12.7537C20.4812 12.9562 20.2065 13.07 19.92 13.07L15.33 13.07C15.1443 13.0715 14.9627 13.1247 14.8055 13.2236C14.6483 13.3225 14.5217 13.4632 14.44 13.63L11.38 19.74L10.11 19.74L12.1 14.44Z" fill="black"/>
</g>
<defs>
<clipPath id="clip0_1513_4823">
<rect width="24" height="24" fill="white" transform="translate(24) rotate(90)"/>
</clipPath>
</defs>
</svg>
