<svg width="16" height="28" viewBox="0 0 16 28" fill="none" xmlns="http://www.w3.org/2000/svg" xmlns:xlink="http://www.w3.org/1999/xlink">
<path d="M15.184,0.458C15.02,0.294 14.825,0.164 14.611,0.075C14.397,-0.014 14.167,-0.06 13.936,-0.06C13.704,-0.06 13.474,-0.014 13.26,0.075C13.046,0.164 12.851,0.294 12.687,0.458L0.967,12.169C0.836,12.299 0.732,12.454 0.661,12.625C0.591,12.795 0.554,12.978 0.554,13.163C0.554,13.347 0.591,13.53 0.661,13.7C0.732,13.871 0.836,14.026 0.967,14.156L12.687,25.867C13.378,26.558 14.493,26.558 15.184,25.867C15.875,25.176 15.875,24.063 15.184,23.373L4.972,13.155L15.198,2.938C15.875,2.262 15.875,1.134 15.184,0.458Z" fill="#1E232C" stroke="#1E232C" stroke-width="0.2" stroke-miterlimit="3.999327"/>
</svg>
